<?xml version="1.0" encoding="UTF-8"?>
<svg id="Layer_1" data-name="Layer 1" xmlns="http://www.w3.org/2000/svg" xmlns:xlink="http://www.w3.org/1999/xlink" viewBox="0 0 26 24.23">
  <defs>
    <style>
      .cls-1 {
        mask: url(#mask);
      }

      .cls-2 {
        fill: #fff;
      }
    </style>
    <mask id="mask" x="-3.23" y="-2.48" width="33.51" height="29.1" maskUnits="userSpaceOnUse">
      <g id="SVGID">
        <g>
          <g>
            <polygon class="cls-2" points="-3.23 2.31 26.59 -2.48 30.27 21.81 .45 26.61 -3.23 2.31"/>
            <path d="M16.55,22.56c-.04-.06-.08-.12-.13-.18-.04.05-.06.08-.08.11-.02,0-.05-.01-.06-.02-.02-.02-.03-.06-.05-.07-.13-.08-.13-.02-.16.06,0,.02,0,.03,0,.07-.38.2-.36.15-.35.42-.13.05-.29-.03-.35.16-.05-.04-.04,0-.04-.28.06.03.1.04.15.06.05-.11.07-.08-.08-.12,0-.09-.02-.18-.02-.28.18-.02.34.13.54.01-.03-.04-.05-.08-.07-.11q.32-.25.46-.25c-.01.06,0,.04-.05.11.09-.01.15-.02.24-.04.03.04.07.08.11.14.05-.01.11-.02.15-.05.17-.11.12-.08.34,0,.15-.24.09-.21.25-.19-.09.41-.41.16-.54.36-.05.07-.14.1-.25.08Z"/>
            <path d="M8.03,23.11c.23-.13.39-.26.56-.13.15.12.15.22,0,.35-.08,0-.15,0-.27,0,.08.25.08.21.04.27q-.12.16.06.28c.11-.12.1-.27.15-.26.41.08.35.08.36.12-.04.1-.29.07-.19.28-.99-.11-.56.04-.6-.83-.13-.06-.11-.05-.1-.06Z"/>
            <path d="M12.71,23.66c.01.06.02.12.04.18.34,0,.42-.03.23.07.08.05.16.11.26.17-.04.03-.06.05-.08.06.14.41.13.32.05.39,0,0,0,.01-.11-.24-.08.03-.09.15-.18.1-.08-.04-.09-.11-.07-.19.04-.01.08-.02.16-.04-.07-.05-.11-.08-.16-.11-.2.13-.21.32-.26.52-.05-.04-.09-.06-.13-.1.04-.05.07-.09.08-.11-.04-.29-.06-.16.02-.51-.07-.04-.17.02-.18-.08.03-.01.06-.03.08-.03.07,0,.12,0,.14-.07.03-.08.13,0,.11-.02Z"/>
            <path d="M15.27,23.96c-.01-.14.07-.11-.39-.27-.04.07-.04.2-.21.22.02-.08.03-.16.05-.26.06-.02.14-.05.23-.09,0-.19-.06-.14.23-.08-.01-.06-.02-.11-.03-.15.11-.08.32.14.27.2-.03.04-.13.05-.1.14.03.08.11.07.18.07.05,0,.1.02.15.03.01.06.06-.01-.37.19Z"/>
            <path d="M3.04,18.64s.09-.08.16-.14c-.15,0-.25-.02-.28-.16.06-.03.14-.07.23-.12.03.12.04.17.07.17.08,0,.13.02.18.08.04.04.17.02.19.06.06.13.11.11.14.15,0,.22-.24.06-.3.22,0,0,.03.01-.39-.25ZM3.47,18.59c-.07-.01-.05-.02-.08.03.07.02.05.03.08-.03Z"/>
            <path d="M1.22,13.57c.06.06.12.12.18.18.06-.02.11-.04.17-.06-.01.07-.03.12-.04.17.08.06.16.12.25.18-.05.06-.09.1-.18.06-.34-.18-.29-.13-.59-.12.03-.06.05-.1.08-.16-.28-.02-.3.01.13-.25Z"/>
            <path d="M6.89,19.48s.08-.06.15-.12c0,.07,0,.12,0,.17.09,0,.2,0,.2.1,0,.1-.1.13-.18.14.11.12.11.05.05.26-.09.02-.17.04-.26.06,0-.11-.04-.2.05-.3.05-.06,0-.18-.01-.3Z"/>
            <path d="M8.02,23.12c-.05.01-.11.07-.14-.02-.02-.06-.06-.07-.12-.06-.06.02-.11.04-.09.12,0,.02-.01.04-.03.08-.22-.12-.1-.09-.21.05-.03.03-.07.05-.11.08-.13-.19.22-.26.25-.43,0-.03.1-.05.15-.06.04-.01.09,0,.14,0,.17-.02.18-.01.17.13,0,.12,0,.1-.01.11Z"/>
            <path d="M4.33,18.61q-.16,0-.18-.17s-.08.04-.12.06c.1.14.09.12.06.16-.33-.11-.24-.07-.33-.2.04-.07.08-.12.11-.18q.33,0,.45.34Z"/>
            <path d="M4.01,19.15q.11-.12.23-.12c.03-.07.06-.13.1-.22.09.21-.03.37-.07.54-.02.1-.14.08-.24.08.06-.08.11-.15.17-.23-.14-.06-.2.01-.26.08-.09-.02-.18-.04-.26-.06q.05-.13.32-.07Z"/>
            <path d="M7.52,15.04c.03.19.01.17.05.12.07.06.14.13.22.19-.16.09.05.08.04.14-.12.1-.28.06-.34-.1-.15-.01-.09,0-.23-.02.11-.1.09-.25.27-.33Z"/>
            <path d="M16.9,22.04c-.11.03-.21.06-.32-.02-.15-.1-.32-.18-.51-.27.08-.04.16-.08.23-.11.25.1.35.33.59.41Z"/>
            <path d="M3.84,20.03s.05.04.09.07c-.12.08-.3.07-.3.24-.09.01-.16.02-.22.03-.04-.05-.11-.12-.1-.13.1-.08,0-.24.17-.3,0,.05,0,.1.01.17,0,0,.4-.05.34-.07Z"/>
            <path d="M9.42,16.8q-.15.01-.34.19c-.13-.05-.05-.15-.06-.23.05-.02.11-.04.17-.06-.06-.06,0-.05-.26-.03,0-.18.02-.18.17-.13.06.02.26-.01.32.26Z"/>
            <path d="M6.97,24.04c-.07-.19-.13-.36-.2-.54.14-.07.12.06.18.09.09.02.18-.07.22.02.02.04-.02.11-.03.16-.02.09-.11.15-.11.25,0,0-.04.02-.06.03Z"/>
            <path d="M9.29,22.86c-.13-.08-.09-.16-.07-.24-.04-.04-.09-.07-.12-.1.02-.09.08-.18-.04-.25-.03-.02,0-.12,0-.23.19.15.17.34.24.49.46.15-.04-.03-.01.32Z"/>
            <path d="M8.58,16.26c.29-.18.32-.18.19-.3-.02-.02-.01-.06-.02-.1.17.07.4.05.34.31-.16.03-.33.11-.5.14,0-.02-.01-.04-.02-.05Z"/>
            <path d="M13.02,19.29c.16,0,.09.17.22.21-.11.08-.22.16-.14.31-.15.01-.11.02-.26-.28.14-.15.09-.1.18-.23Z"/>
            <path d="M15.79,21.07c-.12.04,0,.08-.48-.17.04-.08.09-.15.13-.21-.06-.06-.11-.11-.16-.18q.15-.04.31.16c-.09.08-.06.05-.1.1-.03.13.15.03.16.14,0,.05.09.1.15.16Z"/>
            <path d="M8.51,18.02c.06.04.1.07.17.12.03-.06.05-.12.07-.17.08.02.06-.02.09.28-.16-.03-.19.19-.36.1-.06-.1-.04-.2.03-.32Z"/>
            <path d="M3.71,19.96s.02-.09.04-.18c.07-.07.26-.11.22-.3.12,0,.13.08.15.13-.03.06-.05.1-.08.15-.03.05-.09.08-.12.13-.03.05.01.12-.08.13,0,0,.03.02-.13-.06Z"/>
            <path d="M14.16,19.66c.05,0,.1,0,.15,0,.06.14-.11.15-.15.23-.1-.06-.19-.12-.29-.18.18-.19.1-.16.4-.15.03.09-.07.07-.1.1Z"/>
            <path d="M10.98,21.5c-.07,0-.14-.03-.24-.06.03-.06.07-.13.11-.21.13.07.24.14.38.08-.02-.02.15.22-.25.18Z"/>
            <path d="M7.8,14.09c.04.12-.06.23.14.27-.08.03-.12.05-.14.05-.14-.02-.27-.04-.41-.08.11-.03.18-.08.25-.15.04-.04.1-.06.16-.09Z"/>
            <path d="M13.5,16.23c-.15.11-.18.1-.23-.06-.03-.09-.13-.21-.04-.26.03-.01.09,0,.1.01.06.1.2.15.16.31Z"/>
            <path d="M14.24,23.25c.23-.07.31.07.42.2-.05,0-.09,0-.16,0,.03.08.05.15.07.21-.14-.01-.09,0-.34-.42Z"/>
            <path d="M10.85,21.02c-.07.16-.03.11-.21.18.05-.18.1-.32.14-.48.08.07.2.08.18.2.08.05.1.03-.11.09Z"/>
            <path d="M12.58,14.85c.11,0,.19,0,.29,0-.06.13-.11.24-.17.36-.06,0-.12,0-.2-.01.15-.27.14-.19.08-.34Z"/>
            <path d="M4.01,21.94c-.02-.08-.04-.14-.06-.19.13-.25.43-.02.29.07-.07.04-.14.07-.23.12Z"/>
            <path d="M8.09,15.68s-.04-.09-.06-.16c.05,0,.09-.02.15-.03-.02.08-.08.15.05.17.08.02.15.07.22.11-.1.06-.22.1-.34,0-.03-.02-.09-.02-.14-.02,0-.05-.02-.03.12-.07Z"/>
            <path d="M5.03,20.49c-.12-.17-.11-.31.02-.47.03.02.08.06.08.07-.12.12-.01.2.05.31-.05.03-.09.06-.15.1Z"/>
            <path d="M-.41,11.77c.17.3.07.23.42.3,0,.02,0,.03,0,.05-.15.05-.04.06-.4,0,.06-.11-.08-.2-.02-.36Z"/>
            <path d="M.21,15.43c-.07.1-.12.18-.17.27,0-.18-.19-.21-.29-.31.04-.03-.02-.03.46.04Z"/>
            <path d="M8.92,21.69c-.05.08-.11.08-.19.07-.1-.02-.15.02-.13.12.02.07,0,.1-.09.1-.01-.08-.02,0,.03-.3.13-.02.26-.05.38.02Z"/>
            <path d="M17.21,18.79s.04-.05.06-.08c-.02,0-.06-.01-.07-.02-.06-.11.05-.13.06-.12.11.05.21.1.35.17-.16.03-.27.04-.41.07Z"/>
            <path d="M8.91,23.12c0-.17.2-.11.26-.2.06.06.11.12.17.18-.01.01-.05.05-.05.05-.11-.07-.22-.01-.33-.01-.01,0-.02,0-.05-.02Z"/>
            <path d="M7.77,18.81c.12-.07.22-.13.33-.19.02.09.06.17-.03.23-.08.06-.15.05-.31-.04Z"/>
            <path d="M5,22.64c-.06-.11-.1-.2-.15-.3.02-.04.07-.08.15-.03.12.08.13.14,0,.33Z"/>
            <path d="M17.5,23.66s-.03.08-.04.12c-.19.02-.24-.14-.41-.2.2-.04.31.05.45.08Z"/>
            <path d="M10.9,20.68c-.05-.06-.09-.1-.15-.17.07-.06.14-.13.22-.19q.09.11-.05.2c.01.05.1.11-.02.16Z"/>
            <path d="M5.11,19.78c.05-.07.1-.14.16-.23.05.08.09.15.12.22.02.04-.07.09-.13.07-.05-.02-.09-.04-.15-.07Z"/>
            <path d="M6.16,18.71c.21-.12.34-.03.32.09,0,.03-.05.07-.07.07-.05,0-.13-.07-.25-.16Z"/>
            <path d="M10.08,17.78c.14-.1.26-.18.38-.27,0,.05.03.11.02.15-.05.15-.18.12-.4.12Z"/>
            <path d="M8.47,15.35q.18,0,.24.2c-.09,0-.18,0-.29,0,.02-.08.04-.15.05-.21Z"/>
            <path d="M11.23,21.32c.09-.14-.04-.21-.15-.3.17-.01.29-.02.39.12-.27.2-.24.18-.24.18Z"/>
            <path d="M8.84,22.62c0-.08.01-.15.02-.22.19.02.15.18.25.25-.12.07-.18-.02-.27-.03Z"/>
            <path d="M14.52,22.81s-.04.05-.08.07c-.06.02-.2-.04-.21-.09-.03-.14.25-.14.29.02Z"/>
            <path d="M4.08,23.84s-.06.07-.09.11c-.13-.01-.26-.02-.4-.04.03-.15.39-.08.48-.07Z"/>
            <path d="M10.07,20.57c-.04.05-.07.1-.12.17-.1-.14-.04-.12-.26-.07.02-.06.03-.11.05-.12.11-.06.21-.04.32.03Z"/>
            <path d="M8.91,22.01c.01-.11.02-.17.04-.26.11.05.18.08.3.14-.13.05-.21.08-.34.12Z"/>
            <path d="M16.15,22.71c-.04.13-.07.23-.1.33-.26.06-.17-.23.1-.33Z"/>
            <path d="M5.08,12.12c.07-.02.04-.18.19-.1-.04.11-.09.19-.24.2-.08,0-.16.02-.18-.07.07-.08.15,0,.23-.04Z"/>
            <path d="M9.05,14.31s-.09,0-.14,0c-.02,0-.05-.04-.04-.05.1-.28.11-.22.2-.26,0,.1,0,.19-.02.3Z"/>
            <path d="M11.72,20.7c.1-.02.19-.04.25-.13.04-.06.09-.06.19,0-.29.22-.34.24-.43.13Z"/>
            <path d="M13.06,20.37c-.33.09-.46-.08-.42-.14.04-.06.07-.03.42.14Z"/>
            <path d="M2.32,18.73c.21,0,.22.02.12.25-.14-.05-.11-.16-.12-.25Z"/>
            <path d="M3.3,19.42c.04-.16.09-.17.34-.05,0,.12-.05.09-.34.05Z"/>
            <path d="M24.74,22.14c-.17.04-.24-.03-.29-.15.21-.09.14-.11.29.15Z"/>
            <path d="M6.39,20.5c-.13.04-.25.08-.37.12-.01-.01-.03-.02-.03-.03,0-.13.17-.1.24-.18.03-.04.06-.02.15.09Z"/>
            <path d="M8.45,18.76c-.04-.29-.07-.22.1-.35.09.05-.05.12.02.19.03.03,0,.13-.13.16Z"/>
            <path d="M12.23,21.45c.14,0,.26-.01.39-.02.01.11-.09.13-.12.13-.09-.02-.21,0-.27-.1Z"/>
            <path d="M8.55,3.77c-.06.14-.12.17-.3.16.04-.13.11-.16.3-.16Z"/>
            <path d="M.4,13.71c.01.07.02.14.03.22-.21.19-.21-.2-.03-.22Z"/>
            <path d="M4.13,10.78c.24.01.25.02.42.12-.01.04.02.01-.1.1-.07-.1-.04-.06-.09-.14-.18.01-.12.02-.23-.08Z"/>
            <path d="M.98,13.32c-.1,0-.19,0-.21-.09,0-.06.06-.1.2-.11,0,.06,0,.13,0,.2Z"/>
            <path d="M10.39,19.53c-.09.02-.16.04-.27.07,0-.07,0-.12,0-.18q.22,0,.27.11Z"/>
            <path d="M12.5,14.75c.11-.18.1-.11,0-.31.23-.04.18.23.04.34-.01,0-.03-.01-.04-.02Z"/>
            <path d="M8.19,14.1c-.11-.01-.18-.1-.17-.2q0-.05.13-.06c.01.08.03.17.04.25Z"/>
            <path d="M17.3,19.34q.08-.08.23-.08-.03.1.04.19c-.15.07-.18-.07-.27-.1Z"/>
            <path d="M1.11,13.45c.15-.1.25-.21.33-.06-.26.19-.31.03-.33.06Z"/>
            <path d="M8.41,16.24c-.02-.1-.04-.18-.06-.26.18-.08.12.12.24.14-.06.04-.11.07-.18.12Z"/>
            <path d="M23.71,22.02c.07.01.16-.05.2.04.04.09-.11.08-.14.16-.11-.19-.1-.16-.06-.2Z"/>
            <path d="M3,19.19c.1-.05.17-.12.27-.06-.1.15-.13.16-.27.06Z"/>
            <path d="M11.33,23.9c-.19.02-.13-.06-.07-.32.13.09.06.21.07.32Z"/>
            <path d="M3.68,19.04s-.06.03-.1.04c-.04-.04.08-.13-.16-.19,0,0-.02,0,.35-.06.06.05-.12.11-.09.22Z"/>
            <path d="M12.02,14.41c.16-.13.11-.11.21-.09,0,0-.06.19-.07.19-.13-.02-.1-.03-.14-.09Z"/>
            <path d="M17.96,12.94c.11-.09.02-.08.32-.06,0,.02-.01.05-.03.06-.09.03-.18.07-.29,0Z"/>
            <path d="M16.83,23.13c0-.09.01-.14.02-.21.39.02.36,0-.02.21Z"/>
            <path d="M25.99,17.39c-.04-.09-.07-.14-.09-.2.07-.04.13-.05.22,0-.04.06-.07.11-.12.2Z"/>
            <path d="M3.25,19.55c.05-.02.1-.05.17-.08.03.06.06.11.09.18-.34-.05-.29-.02-.26-.11Z"/>
            <path d="M13.7,19.69c-.05-.05-.1-.1-.15-.16.08-.03.15-.05.23-.07-.03.24-.01.2-.08.23Z"/>
            <path d="M25.81,18.32c.11-.07.22-.14.32-.21.03.14-.06.21-.32.21Z"/>
            <path d="M15.32,15.58c.12-.11.15-.22.3,0-.09,0-.17,0-.3,0Z"/>
            <path d="M23.75,22.42s-.01.07-.03.09c-.08.08-.15.11-.23.09.23-.24.18-.21.26-.18Z"/>
            <path d="M11.05,20.57c.1.08.07.06.13.09-.02.06-.05.11-.07.16-.15-.06-.04-.15-.06-.26Z"/>
            <path d="M3.15,20.31c-.12-.19-.12-.14-.02-.25.11.07.12.14.02.25Z"/>
            <path d="M.1,2.12c-.04.06-.07.11-.12.18-.06-.04-.11-.06-.07-.12.04-.05.08-.12.18-.05Z"/>
            <path d="M24.14,21.49c-.06.04-.11.09-.14.08-.1-.04-.06-.11-.02-.19.05.03.09.06.16.11Z"/>
            <path d="M7.51,12.48q-.19.05-.21-.12c.15-.06.1.09.21.12Z"/>
            <path d="M6.66,22.71c.13.02.2.04.29.05-.03.05-.06.09-.11.16-.06-.07-.1-.12-.18-.21Z"/>
            <path d="M4.5,10.1q0,.15-.15.2c-.02-.1.04-.15.15-.2Z"/>
            <path d="M2.43,12.89c-.1.08-.01.21-.17.24-.03-.15-.03-.16.17-.24Z"/>
            <path d="M3,20.02c-.09-.02-.14-.03-.19-.04.03-.1,0-.08.13-.13.02.05.04.09.07.17Z"/>
            <path d="M3.46,18.22c-.03-.08-.05-.13-.08-.19.15.03.1,0,.21.1-.04.02-.08.05-.14.09Z"/>
            <path d="M.69,12.56q-.06.11-.25.09c.04-.15.16-.07.25-.09h0Z"/>
            <path d="M11.41,22.69c.08-.04.12-.07.17-.08.11-.02.14.11,0,.13-.03,0-.07-.02-.16-.05Z"/>
            <path d="M.98,13.59c0-.13.04-.21.12-.28.01.18.04.11-.12.28Z"/>
            <path d="M3.59,19.08c0,.06,0,.13-.13.16,0-.07,0-.13,0-.22.13.06.1.04.12.06Z"/>
            <path d="M8.01,21.12q-.2,0-.2-.13c.11-.02.15.05.2.13Z"/>
            <path d="M14.44,19.71c.13-.08.15-.06.2.11-.13.05-.13-.06-.2-.11Z"/>
            <path d="M.38,12.3s-.06.09-.1.15q-.1-.11.1-.15Z"/>
            <path d="M20.95,21.21c-.09.13-.03.11-.27.07,0-.03-.04-.01.25-.1,0,0,.02.02.02.03Z"/>
            <path d="M25.62,18.63c.18-.16.12-.13.23-.13-.01.11.05.08-.23.13Z"/>
            <path d="M1.73,17.64c.06-.22.05-.23.17.01-.07,0-.11,0-.17-.01Z"/>
            <path d="M22.85,20.27c-.01.09-.03.15-.12.13-.03,0-.07-.04-.06-.05.02-.09.1-.07.18-.08Z"/>
            <path d="M1.2,22.84c-.13,0-.17-.06-.14-.16.1.01.16.05.14.16Z"/>
            <path d="M4.73,11.22s-.02.08-.03.12c-.29-.09-.25-.08.03-.12Z"/>
            <path d="M2.22,13.54c-.03-.09-.08-.05-.16,0,.12-.25.1-.23.21-.02-.02,0-.03.02-.05.02Z"/>
            <path d="M2.37,19.2s.02,0,.07.12c-.03.01-.06.04-.08.04-.11-.02-.1-.16.02-.16Z"/>
            <path d="M17.69,19.32c.05-.05.1-.1.15-.15.13.13-.05.24-.15.15Z"/>
            <path d="M21,21.37q.08-.1.2-.06-.1.11-.2.06Z"/>
            <path d="M9.22,17.36c.1,0,.16,0,.24,0-.11.13-.14.13-.24,0Z"/>
            <path d="M6.44,16.32c-.06.02-.11.03-.17.05,0-.05,0-.09.01-.11.06-.06.11-.03.16.05Z"/>
            <path d="M24.32,21.83c.08-.08.04-.09.17-.02-.07.1-.04.09-.17.02Z"/>
            <path d="M1.87,17.37c-.08-.07-.12-.12-.04-.19.08.04.06.1.04.19Z"/>
            <path d="M9.33,17.07c.01.07.04.09-.05.17,0,0-.06-.02-.06-.03,0-.1.07-.12.11-.15Z"/>
            <path d="M5.4,10.89c-.07,0-.14-.02-.23-.02q.12-.11.23.02Z"/>
            <path d="M16.42,23.06q-.15.06-.18-.06c.08-.03.13-.01.18.06Z"/>
            <path d="M13.79,22.76q.1-.06.17.08c-.04.05,0,.07-.17-.08Z"/>
            <path d="M7.33.9c.1-.06.17-.05.24,0-.02.07.02.06-.24,0Z"/>
            <path d="M15.82,21.32q.11-.15.23-.04c-.07.01-.14.02-.23.04Z"/>
            <path d="M12.72,23.67c-.04-.09.07-.14.22,0-.12.05-.24-.02-.22,0Z"/>
            <path d="M11.95,22.75c-.05.04-.08.06-.12.08-.01,0-.06-.03-.06-.04.05-.14.08-.08.18-.04Z"/>
            <path d="M14.1,18.86c.06.02.11.03.19.06q-.15.08-.19-.06Z"/>
            <path d="M17.43,19.14c-.16.02-.17.01-.1-.14.04.05.07.09.1.14Z"/>
            <path d="M14.18,24.25c-.04-.12.13-.13.24-.08-.27.08-.25.07-.24.08Z"/>
            <path d="M10.33,20.3c-.16,0-.18-.06-.16-.14.07-.04.03-.06.16.14Z"/>
            <path d="M4.24,11.46c-.2.19-.16.17-.21.15.07-.13.09-.22.21-.15Z"/>
            <path d="M9.02,23.66q-.04-.13.1-.19c-.04.07-.07.13-.1.19Z"/>
            <path d="M1.57,13.64c-.1-.06-.06-.12-.02-.21q.07.1.02.21Z"/>
            <path d="M13.19,16.56c-.26.11-.22.11-.24.06.05-.08.16-.05.23-.09,0,.01.01.02.02.03Z"/>
            <path d="M15.19,20.28c.14-.11.19.03.12.06-.07.03-.11,0-.12-.06Z"/>
            <path d="M16.67,16.63c.06-.04.13-.08.18.02-.21.02-.18.03-.18-.02Z"/>
            <path d="M24.71,22.38c-.01.11-.1.12-.19.15.04-.09.08-.14.19-.15Z"/>
            <path d="M8.38,22.1q-.07-.06-.03-.18.07.09.03.18Z"/>
            <path d="M11.71,23.86q-.13.06-.22-.02s0-.04.22.02Z"/>
            <path d="M10.96,20.93c.17-.08.18-.08.28,0-.26.04-.2.04-.28,0Z"/>
            <path d="M25.5,21.48c.06-.03.12-.06.18-.09q-.01.11-.18.09Z"/>
            <path d="M4.34,23.91c-.11-.05-.05-.11-.06-.19.12.05.1.11.06.19Z"/>
            <path d="M.37,10.11c.06-.02.11-.04.17-.06-.06.15-.06.15-.17.06Z"/>
            <path d="M14.46,22.58c-.09-.03-.14-.04-.2-.06.01-.02.02-.05.04-.06.11-.05.11.03.16.12Z"/>
            <path d="M.07,2.33q.23-.05.2.09c-.06-.03-.11-.05-.2-.09Z"/>
            <path d="M4.27,10.49c-.07-.04-.08-.01.01-.14.08.04.08,0-.01.14Z"/>
            <path d="M13.08,17.87c.12.12.13.07,0,.19-.05-.03-.04,0,0-.19Z"/>
            <path d="M19.68,22.25q-.08-.09.1-.16c-.03.05-.06.1-.1.16Z"/>
            <path d="M12.97,16.39s.04,0,.04,0c.02.04.06.09-.01.13-.01,0-.06,0-.06-.01,0-.04.02-.08.03-.13Z"/>
            <path d="M13.61,20.04c-.03-.12.03-.16.1-.19.07.04.08,0-.1.19Z"/>
            <path d="M5.25,10.17c-.05.04-.1.08-.16.12q0-.1.16-.12Z"/>
            <path d="M15.49,19.63q.04.12-.08.14c.03-.05.05-.09.08-.14Z"/>
            <path d="M1.75,12.34c-.04.11-.09.12-.15.09-.01,0-.01-.06,0-.06.04-.01.09-.02.15-.04Z"/>
            <path d="M2.74,19.95c-.08-.05-.12-.09-.08-.18.1.03.1.09.08.18Z"/>
            <path d="M15.78,20.23s-.07.06-.11.08c0,0-.06-.04-.06-.05.02-.03.04-.06.08-.08,0,0,.04.03.09.05Z"/>
            <path d="M16.6,23.88q-.14.03-.11-.15c.05.06.07.1.11.15Z"/>
            <path d="M2.74,18.73s.08-.08.13-.12c0,.07.02.11.03.17-.05-.02-.09-.03-.16-.05Z"/>
            <path d="M12.09,21.33c.06-.03.1-.05.16-.08q-.02.14-.16.08Z"/>
            <path d="M6.69,14.89c.11.04.05.11.08.18q-.12-.04-.08-.18Z"/>
            <path d="M5.71,15.39s-.11.1-.16,0c0,0,.03-.05.05-.05.02,0,.05.02.11.06Z"/>
            <path d="M4.17,17.32c-.08.07-.04.07-.16.01.05-.06,0-.06.16-.01Z"/>
            <path d="M16.18,21.11c.11.09.12.05,0,.16-.06-.03-.05,0,0-.16Z"/>
            <path d="M2.77,18.57c-.05.09-.13.11-.25.11.11-.13.3-.07.25-.11Z"/>
            <path d="M10.56,15.11s-.01-.08-.02-.14c.04.02.08.02.09.04.02.04.02.09-.07.1Z"/>
            <path d="M15.88,22.99s0,.01-.11.06c0-.02-.03-.04-.02-.06.05-.1.1-.03.13-.02h0Z"/>
            <path d="M14.76,24.11c-.03.11-.11.11-.17.13-.03-.05-.06-.02.17-.13Z"/>
            <path d="M9.85,15.37q-.13.02-.19-.06c.14-.04.18.08.19.06Z"/>
            <path d="M1.66,12.25c-.07.08-.13.06-.18,0,.06,0,.12,0,.18,0Z"/>
            <path d="M9.84,15.38c.06,0,.12,0,.19,0-.11.11-.12.11-.19,0,0,0,0,0,0,0Z"/>
            <path d="M.04,12.64c-.07.02-.15.11-.24-.02.11,0,.17.02.24.02Z"/>
            <path d="M-.16,2.39c.07.01.12.02.19.03-.1.08-.14.05-.19-.03Z"/>
            <path d="M14.91,13.34c-.08-.06-.07-.04-.03-.11.1.06.1.03.03.11Z"/>
            <path d="M10.07,20.47c.08-.02.12-.04.2-.06-.04.11-.08.14-.2.06Z"/>
            <path d="M10.87,18.05c.1-.2.07-.18.1-.07.02.07-.02.08-.1.07Z"/>
            <path d="M9.53,14.07q.11-.03.12.08s-.08-.05-.12-.08Z"/>
            <path d="M7.62,19.54s.05-.07.09-.11c.02.03.04.05.04.07,0,.06-.03.11-.13.04Z"/>
            <path d="M.7,12.56s-.05-.08-.04-.09c.03-.05.08-.04.14.01-.12.09-.11.08-.11.08Z"/>
            <path d="M4.77,11.96c-.05-.01-.1-.03-.16-.04q.08-.07.16.04Z"/>
            <path d="M7.08,11.66c.08.06.08.03.03.12-.07-.04-.07,0-.03-.12Z"/>
            <path d="M3.06,24.21s-.03-.06-.05-.09c0,0,.04-.03.05-.02.02.02.04.05.06.08-.02.01-.04.02-.06.04Z"/>
            <path d="M9.53,23.98c-.06-.07-.04-.11,0-.14,0,0,.05.01.05.01-.01.04-.03.07-.06.12Z"/>
            <path d="M25.54,18.77c0,.07.02.04-.07.12-.04-.02-.04,0,.02-.13.02,0,.03,0,.05.01Z"/>
            <path d="M7.68,19.09q.05.1-.04.18c.01-.07.03-.13.04-.18Z"/>
            <path d="M8.84,17.94c-.13-.08-.02-.11,0-.15.05,0,.05-.02,0,.15Z"/>
            <path d="M4.51,20.66c-.07.03-.11.04-.15.06q0-.11.15-.06Z"/>
            <path d="M3.25,19.55c-.03.08,0,.07-.16.06.05-.08.1-.09.16-.06Z"/>
            <path d="M10.54,20.42c.13.06.06.12.05.17-.06,0-.04.03-.05-.17Z"/>
            <path d="M10.43,15.36s-.07-.04-.12-.06q.11-.05.12.06Z"/>
            <path d="M7.43,15c-.16.04-.13.05-.15-.01.17-.05.13-.06.15.01Z"/>
            <path d="M6.74,12.57s-.05-.05-.09-.08q.08,0,.09.08Z"/>
            <path d="M3.6,10.04c-.08-.03-.08-.07-.02-.13.08.04.07.08.02.13Z"/>
            <path d="M4.85,10.44c.18-.04.15-.04.17,0-.08.05-.04.04-.16.04,0-.01,0-.03,0-.04Z"/>
            <path d="M.17,11.74c-.04-.1-.06-.16.08-.17-.03.06-.04.09-.08.17Z"/>
            <path d="M5.18,12.27s-.07.04-.12.06q0-.08.12-.06Z"/>
            <path d="M15.11,18.36c.17.01.14,0,.14.05-.17-.01-.14,0-.14-.05Z"/>
            <path d="M14.73,18.67c-.01.09-.05.12-.16.1.1-.08.06-.06.16-.1Z"/>
            <path d="M12.93,19.97s.03-.06.05-.09c0,0,.03,0,.03,0,0,.03-.01.06-.02.1-.02,0-.04,0-.06-.01Z"/>
            <path d="M17.39,19.6c-.17,0-.14.01-.14-.05.17,0,.14-.02.14.05Z"/>
            <path d="M22.69,19.66c.13-.04.16-.02.14.07-.04-.02-.07-.04-.14-.07Z"/>
            <path d="M20.88,20.75c.12.14.11.1.04.16-.09-.09-.07-.05-.04-.16Z"/>
            <path d="M14.71,22.83c-.05-.03-.09-.05-.12-.07.02-.02.03-.04.05-.05.07-.02.09.02.07.12Z"/>
            <path d="M3.07,17.98s-.08.06-.13.1q0-.09.13-.1Z"/>
            <path d="M14.16,15.82c.19-.03.16-.03.16,0-.18.03-.15.03-.16,0Z"/>
            <path d="M24.01,22.66c0,.09-.04.11-.15.1.06-.04.09-.07.15-.1Z"/>
            <path d="M1.75,13.65c.06-.02.09-.03.17-.06-.06.08-.08.11-.17.06Z"/>
            <path d="M.08,11.92c.01-.06.02-.1.03-.14.07.05.1.08-.03.14Z"/>
            <path d="M8.53,23.38q.09.07,0,.13s0-.07,0-.13Z"/>
            <path d="M2.78,18.57q.02-.1.16-.04c-.18.04-.16.04-.16.04Z"/>
            <path d="M1.75,11.37c-.02.09-.07.09-.16.07.11-.08.07-.06.16-.07Z"/>
            <path d="M16.58,23.33c.07-.01.11-.02.15-.02.03,0,.01.16-.15.02Z"/>
            <path d="M3.9,3.77c.08-.02.12-.03.17-.05-.03.08-.07.1-.17.05Z"/>
            <path d="M10.26,21.33s-.07.04-.11.06q0-.08.11-.06Z"/>
            <path d="M4.91,10.79c-.05-.08-.04-.06-.03-.1.11.05.1.03.02.09h0Z"/>
            <path d="M6.95,12.35c.12.1.11.07.08.11-.14-.07-.13-.05-.08-.11Z"/>
            <path d="M12.53,20.45s.07-.04.11-.05q0,.1-.11.05Z"/>
            <path d="M11.25,20.55c.07.01.11.02.19.03-.1.07-.15.07-.19-.03Z"/>
            <path d="M2.32,13.31c-.12-.07-.11-.05-.08-.09.14.04.12.02.08.09Z"/>
            <path d="M6.66,14.75c-.12.08-.09.08-.13.03.12-.08.1-.07.13-.03Z"/>
            <path d="M22.59,21.07c-.08.08-.1.02-.16-.04.08.02.12.03.16.04Z"/>
            <path d="M5.2,19.98c-.07-.08-.06-.06-.03-.09.08.07.08.05.03.09Z"/>
            <path d="M12.09,22.82c-.14.06-.1.06-.15,0,.08-.05.05-.04.15,0Z"/>
            <path d="M.47,13.52s.03,0,.03,0c0,.03,0,.07,0,.1-.07-.01-.07,0-.03-.1Z"/>
            <path d="M21.23,19.78c-.09.06-.06.06-.14.02.07-.06.04-.05.14-.02Z"/>
            <path d="M9.7,21.57c-.16.01-.13.02-.13-.02.16,0,.13-.02.13.02Z"/>
            <path d="M13.56,17c-.13.02-.11.03-.12,0,.13-.05.11-.05.12,0Z"/>
            <path d="M24.66,21.77q.02.11-.04.17s-.03.01.04-.17Z"/>
            <path d="M15.87,20.39c-.12.06-.08.06-.13.02.07-.06.03-.05.13-.02Z"/>
            <path d="M9.69,21.25c.06.03.09.05.13.07-.09.04-.12.02-.13-.07Z"/>
            <path d="M.17,19.86c.09.06.08.04.03.1-.05-.03-.04,0-.03-.1Z"/>
            <path d="M18.46,18.09s-.03.05-.04.06c-.02-.01-.04-.02-.04-.04,0,0,.02-.03.03-.03.01,0,.03,0,.05,0Z"/>
            <path d="M13.1,18.86s.06.04.07.06c0,0-.02.04-.02.04-.11-.01-.07-.03-.05-.09Z"/>
            <path d="M11.56,24.09c.05-.03.03-.04.1.04-.05.03-.03.04-.1-.04Z"/>
            <path d="M7.35,10.65c-.06-.05-.06-.02-.01-.09.03.02.03,0,.01.09Z"/>
            <path d="M12.34,24.15s.02-.07.04-.13c.08.08.03.11-.04.13Z"/>
            <path d="M7.29,10.48c.12-.06.1-.06.12-.01-.13.05-.1.05-.12.01Z"/>
            <path d="M4.67,10.4c.13-.04.1-.04.12,0-.13.03-.11.03-.12,0Z"/>
            <path d="M18.37,12.98s.03.02.05.03c-.02.01-.03.03-.05.04,0,0-.04-.02-.04-.03,0-.01.02-.02.03-.04Z"/>
            <path d="M6.62,14.62c-.11-.01-.09,0-.08-.04.11.01.09,0,.08.04Z"/>
            <path d="M6.98,14.29c.06-.04.08-.06.1-.06,0,0,.03.03.03.03-.04.06-.07.04-.13.03Z"/>
            <path d="M6.91,2s-.05.03-.07.03c0,0-.03-.02-.02-.03.03-.05.07-.02.1,0Z"/>
            <path d="M7.29,1.29s.07,0,.13-.01c-.03.08-.08.06-.13.05-.02,0,0-.02,0-.04Z"/>
            <path d="M6.73.95c0,.06.02.08-.06.09.03-.11.02-.09.06-.09Z"/>
            <path d="M6.8.73c.09-.03.07-.04.09.01-.09.02-.07.02-.09-.01Z"/>
            <path d="M6.43,23.4c.09.03.08.02.07.06-.1-.02-.09,0-.07-.06Z"/>
            <path d="M14.12,23.19s-.05-.02,0-.08c.04.04.04.02,0,.08Z"/>
            <path d="M8.93,17.62c-.08.02-.06.02-.09-.03.07-.02.04-.02.09.03Z"/>
            <path d="M23.38,20.43s-.05,0-.08,0c0-.01,0-.03,0-.03.1,0,.08,0,.08.03Z"/>
            <path d="M20.91,20.6c.05.05.06.03,0,.09-.04-.03-.05,0,0-.09Z"/>
            <path d="M10.69,18.78c-.03.08-.02.07-.06.06.03-.08.02-.07.06-.06Z"/>
            <path d="M20.35,17.08s.07.06,0,.1c0,0-.04-.02-.04-.02,0-.02.02-.04.05-.08Z"/>
            <path d="M2.05,23.39c0-.1,0-.08.04-.08-.02.1,0,.08-.04.08Z"/>
            <path d="M3.45,17.85c-.07.04-.04.04-.11,0,.03-.04,0-.04.11,0Z"/>
            <path d="M8.91,13.9c-.05.05-.03.04-.08.02.06-.04.04-.03.08-.02Z"/>
            <path d="M10.02,15.13s.03.01-.01.06c-.03-.04-.04-.02.01-.06Z"/>
            <path d="M11.12,15.22s-.03-.01-.03-.02c.01-.03.03-.05.04-.07.05.03.06.01-.02.09Z"/>
            <path d="M4.16,17.53c-.11,0-.09.02-.09-.04.11,0,.09,0,.09.04Z"/>
            <path d="M2.14,14.6s0,.04-.06.02c.02-.03,0-.03.06-.02Z"/>
            <path d="M14.32,18.52s-.04,0-.02-.06c.04.01.03,0,.02.06Z"/>
            <path d="M15.06,17.9c.04.08.04.06.01.1-.06-.03-.1-.02-.01-.1Z"/>
            <path d="M10.44,24.22c-.07.06-.04.05-.11.02.07-.06.04-.05.11-.02Z"/>
            <path d="M4.33,10.69s.06.02.08.03c0,0,0,.03,0,.03-.11,0-.1,0-.08-.06Z"/>
            <path d="M2.51,8.55c.11.03.1.02.08.06-.11-.03-.1-.02-.08-.06Z"/>
            <path d="M8.88,14.48s-.06-.02-.06-.02c0-.02.01-.04.03-.06,0,0,.04,0,.04.01,0,.02,0,.04-.02.07Z"/>
            <path d="M14.93,18.89c.08.05.07.03.04.08-.08-.06-.07-.04-.04-.08Z"/>
            <path d="M7.89,23.72s-.02-.05-.03-.08c.01,0,.03,0,.03,0,.04.09.03.08,0,.09Z"/>
            <path d="M13.94,19.18c-.1.06-.08.05-.1.02.1-.06.08-.05.1-.02Z"/>
            <path d="M15.29,19.21c.06.04.05.02.02.07-.07-.03-.06-.02-.02-.07Z"/>
            <path d="M5.15,9.79s.04.03-.06.08c-.03-.05-.04-.03.06-.08Z"/>
            <path d="M7.84,9.31c.1.03.09.02.07.05-.1-.02-.08,0-.07-.05Z"/>
            <path d="M3.78,18.83c.16-.09.13-.08.16-.03-.16.05-.14.05-.16.03Z"/>
            <path d="M25.47,18.49c-.02.09,0,.07-.06.06.04-.09.02-.07.06-.06Z"/>
            <path d="M4.9,10.78c.03.1.06.09-.1.04,0-.03-.02-.02.1-.04,0,0,0,0,0,0Z"/>
            <path d="M12.74,20.85c.07.06.07.04,0,.09-.06-.06-.05-.04,0-.09Z"/>
            <path d="M3.51,14.93c-.05.08-.03.07-.06.06.03-.09.01-.08.06-.06Z"/>
            <path d="M5.46,9.71c.05.04.05.02.02.07-.05-.03-.04-.01-.02-.07Z"/>
          </g>
          <g>
            <polygon class="cls-2" points="-3.23 2.31 26.59 -2.48 29.32 15.54 -.5 20.34 -3.23 2.31"/>
            <path d="M7.44,18.61c-.08-.04-.14-.1-.1-.2.08.05.15.1.13.2-.01,0-.03,0-.04,0Z"/>
            <path d="M22.69,16.07q.15-.05.21.06c-.14.02-.1.04-.21-.06Z"/>
            <path d="M24.25,15.79c.1,0,.11.04.11.09-.05,0-.03.02-.11-.09Z"/>
            <path d="M24.15,6.24c.15.02.11.13.15.18.07.08.03.15,0,.22.04.03.08.05.13.08.13-.09.25-.22.44-.19.02-.07.04-.14.05-.19.08-.02.15-.04.25-.07-.04.2-.12.21.05.27.1.03.09.09.05.18-.09,0-.18-.01-.27-.02-.16.07-.1.23-.18.34-.08-.04-.13-.1-.23-.06-.03.01-.11,0-.12-.02-.07-.18-.24.02-.41-.14-.06-.06-.16-.08-.26-.12-.01-.07.05-.12.12-.15.08-.03.1-.08.12-.15.02-.05.06-.1.1-.15ZM24.9,6.69c-.07-.01-.12-.03-.14-.02-.09.04-.08.11-.06.18.06-.05.11-.09.2-.16Z"/>
            <path d="M18.03,5.04s0-.06-.01-.09q-.18.02-.26.19c-.08.02-.16.04-.26.07.01-.05.01-.09.04-.13.13-.18.13-.24-.07-.34.53-.24.66.27.53-.05.05-.01.1-.02.15-.03.03.09.06.17.08.25.18-.08.26-.05.38.12-.15.15-.26.34-.52.36-.05,0-.11.03-.13-.05.08,0,.13-.1.22-.04.01,0,.08-.03.09-.05,0-.02-.02-.07-.05-.08-.04-.01-.09,0-.31.01-.01-.1.04-.13.11-.15.03.02.06.03.1.06.02-.05.03-.09.06-.15-.08.04-.12.07-.16.09Z"/>
            <path d="M21.84,8.8s0-.06,0-.11c.09.02.16.03.25.05-.06.11-.1.19-.15.29.12.08.08.19.04.33-.09-.1-.03-.1-.23.02-.2.11-.36-.07-.28-.16.2-.23.29-.2.23-.32-.05-.09.08-.07.14-.09Z"/>
            <path d="M5.71,9.52c-.17.11-.35.21-.57.08.01-.05.02-.11.04-.18.1.02.17.05.25-.01.04-.03.12,0,.19,0,.08-.1-.06-.12-.08-.18.02-.1.05-.2.09-.34.09.14.09.28.18.38.09.09.15.2.22.31q-.14.05-.32-.04Z"/>
            <path d="M7.42,8.62c-.07.06-.19.09-.12.21-.1.04-.19.07-.29.04.13-.19.19-.22.06-.26-.01.09-.18.14-.05.25.01.13-.13.11-.19.16-.09-.03-.17-.05-.26-.08.09-.08.17-.16.18-.28,0-.06.1-.12.17-.18.09.1.28,0,.35.16.04-.04.04-.02-.03-.12q-.05-.07.08-.13c.05.04,0,.15.11.16,0,0,0,.09,0,.08Z"/>
            <path d="M.07,7.47c.19-.24.21.14.38-.03-.04-.04-.07-.08-.11-.12.04-.02.08-.04.12-.06.15.12.31.22.4.38.04.08.05.08-.01.19-.34.02-.52-.22-.77-.37Z"/>
            <path d="M23.88,5.03c.03-.08.04-.12.06-.18.04,0,.08,0,.13,0-.03.13-.12.2-.24.26.15,0,.28-.01.38-.14.02.17-.19.18-.26.3.1.05.15-.04.22-.07q.03.08-.11.2c-.12,0-.21-.06-.24-.15-.11,0-.21,0-.33.01,0-.05.01-.09.02-.14-.06-.05-.19,0-.21-.11-.02-.07-.1-.14-.02-.24.09.08.15.17.25.21.09.04.22.02.35.03Z"/>
            <path d="M17.23,4.2c-.14-.1-.03-.21-.07-.31.06-.05.12-.1.18-.15-.07-.16-.07-.16.21-.29.05.05.06.18.03.45-.12.1-.23.19-.35.29Z"/>
            <path d="M22.46.26s-.07-.09-.12-.11c-.12-.05-.2-.14-.25-.25-.02-.04-.06-.07-.09-.11-.01-.02,0-.05-.01-.09.23.01.52.21.49.38-.02.1.19.27.03.38-.11.07-.21.07-.33,0,.08-.06.16-.11.27-.19Z"/>
            <path d="M24.56,6.29c-.08-.09-.32-.12,0-.27.07-.03.14-.09.25-.07.07.01.16-.04.24-.06.06.07.06.13-.02.2-.07.06-.13.14-.21.22-.3-.02-.27-.02-.26-.02Z"/>
            <path d="M5.88,8.75c.3,0,.35.15.15.43-.09-.03-.22,0-.25-.11-.06-.18.07-.28.1-.32Z"/>
            <path d="M18.66,1.18c-.06.18-.25.17-.26.19-.12.13-.25.06-.39.04.03-.08.05-.15.07-.23.07.03.14.08.22.08s.14-.05.21-.08c0-.07,0-.13,0-.19.08,0,.14,0,.2,0,0,0,0-.04-.02.16-.01,0-.02.02-.03.03Z"/>
            <path d="M20.3,1.73c-.06-.27.22-.07.27-.29-.44-.05-.36-.01-.43-.16.09-.07.09.01.12.04.04-.02.08-.04.12-.06.09.05.2.08.24.15.03.06,0,.18-.04.24-.1.11.2.18-.28.07Z"/>
            <path d="M18.08,4.04c-.02-.21-.37-.05-.32-.24.04-.16.38-.07.6.23h0c-.1.1-.19-.01-.28,0h0Z"/>
            <path d="M16.41,13.76c-.1-.03-.19-.11-.32.03,0-.09,0-.13.02-.15.08-.08.16-.16.17-.28.12.05.22.09.35.14-.21.12-.15.05-.22.26Z"/>
            <path d="M15.93,12.4c.01-.07.02-.13.04-.2.12.02.23.05.33.05.1,0,.2-.02.3.07-.08.03-.14.06-.21.1-.03-.11,0-.09-.17-.08-.02.06-.04.11-.06.18-.09-.04-.15-.08-.23-.12Z"/>
            <path d="M8.04,2.79c.15.02.34-.12.46.07-.09.07-.12.19-.25.18-.15-.01-.18-.12-.2-.25Z"/>
            <path d="M21.09,8.44c-.06.1-.15.07-.24.07-.09-.09-.02-.17.02-.24-.08-.16-.08-.13-.03-.17.28.16.23.08.25.35h0Z"/>
            <path d="M17.6,6.08c-.07-.19-.08-.12.03-.29-.04-.03,0-.03-.17.05-.12-.21.06-.36.09-.24.02.1-.14.09.2.05-.03.15,0,.3-.15.43Z"/>
            <path d="M20.26.42c.07-.02.14-.05.2-.05.27-.01.18.26-.02.27-.11,0-.15-.05-.18-.22Z"/>
            <path d="M18.73,4.42s-.06,0-.11,0c.04-.07.08-.14.13-.23.13.11.25.22.37.33-.04.1-.12.02-.18.03-.13-.07-.21-.02-.21-.12Z"/>
            <path d="M23.24,10.41c-.04.07-.05.1-.07.12-.06.06-.17.08-.15.19,0,0-.05.04-.08.04-.02,0-.06-.04-.05-.06.04-.2.13-.09-.07-.25.02-.05-.04-.04.42-.04Z"/>
            <path d="M24.18,6.04c-.48.1-.34.11-.64-.03.21-.15.05-.07.39-.03.27.03.25-.06.25.06Z"/>
            <path d="M24.72,4.58c.11-.31.03-.19.27-.21.06,0,.11-.02.19-.04-.07.15-.08.24-.21.21-.07-.01-.15.02-.25.03Z"/>
            <path d="M24.19,4.9c-.11-.16-.11-.11.01-.2.1-.08.09-.07.19,0,.05.04.11.06.18.09-.15.14-.25,0-.37-.01.02.13.02.11,0,.12Z"/>
            <path d="M20.56,5.13c-.05-.07-.21,0-.2-.13.09,0,.18,0,.27,0,.21.01.18.39-.18.18.03-.02.07-.03.11-.05Z"/>
            <path d="M6.69,8.31c.1.03.17.05.15.14-.04.13-.14.18-.36.18.07-.11.14-.21.21-.31Z"/>
            <path d="M18.37,2.14c-.05-.21-.16-.22.06-.43.04-.04.1-.05.13,0,.02.03,0,.12,0,.12-.15.04-.11.16-.13.25,0,.02-.02.03-.05.07Z"/>
            <path d="M21.09,8.44c.05-.01.11-.02.17-.04.15.25.12.17.09.28-.12-.05-.09-.03-.13-.07-.06.03-.09.12-.16.06.04-.26.04-.24.03-.23Z"/>
            <path d="M3.57,8.12q.1-.27,0-.45c.07,0,.12.02.18.03.02-.03.05-.07.1-.14,0,.11.02.18-.07.25-.08.06-.01.28-.21.31Z"/>
            <path d="M10,.92c.07-.15.09-.24.19-.25.03,0,.09.06.08.14-.01.06-.03.12-.06.21-.09-.1-.04-.08-.21-.1Z"/>
            <path d="M7.93,6.48c.1.07.26.05.33.19-.02.02-.05.05-.08.05-.21-.03-.42-.07-.26-.24Z"/>
            <path d="M24.74,4.68s.29.03.21.21c-.03.07-.14.09-.16.04-.04-.07-.06-.14-.09-.21.01-.01.03-.03.04-.04Z"/>
            <path d="M13.37,12.92c-.03-.05-.06-.11-.08-.16.1-.1.15,0,.21.02.03-.12.13-.1.24-.12-.07.17-.23.18-.37.26Z"/>
            <path d="M18.96,15.85c.07-.07.14-.13.21-.2.08.06.14.13.1.23-.12.1-.2-.06-.3-.03Z"/>
            <path d="M22.38,16.01c-.07.12-.15.14-.35.09.1-.18.1-.2.35-.09Z"/>
            <path d="M14.66,13.73c-.02.11-.15.07-.2.14-.13-.08-.07-.17-.06-.28.3.14.27.12.26.14Z"/>
            <path d="M16.88,14.32c.09-.01.15-.02.23-.04.03.07.06.13.1.21-.17,0-.28-.04-.34-.18Z"/>
            <path d="M16.64,16.75c.1-.05.18-.1.29-.16.02.05.04.08.04.12,0,.14-.11.1-.28.08,0,0,0,0-.04-.04Z"/>
            <path d="M25.14,5.24c0,.06,0,.11,0,.17-.16.02-.22-.08-.32-.12.02-.05-.03-.04.33-.05Z"/>
            <path d="M14.54,4.16c.06.04.35.2.14.26-.06.02-.12.02-.18.03.01-.09.02-.17.03-.28Z"/>
            <path d="M17.89,9.77c-.12-.02-.22-.01-.25-.13.09-.04.19-.09.31-.02-.02.05-.04.1-.06.16Z"/>
            <path d="M7.28,7.28c-.13-.16-.15-.23-.09-.29.05-.05.11-.03.24.06-.09.04-.19.08-.15.22Z"/>
            <path d="M20.85,5.61c.06-.01.13-.03.26-.06-.14.12-.01.19-.04.3-.23-.08-.17-.03-.22-.24Z"/>
            <path d="M19.94,6.38c-.16.14-.23-.01-.37.05.36-.62-.02-.06.37-.05Z"/>
            <path d="M21.3,1.86c-.09.03-.19.06-.29.1-.02-.07-.03-.15-.05-.25.13.06.24.1.35.15Z"/>
            <path d="M1.99,2.31c.12-.02.22-.06.31.05-.05.04-.1.09-.15.09-.09,0-.11-.08-.16-.15Z"/>
            <path d="M15.36,12.63c-.21-.11-.23-.24-.09-.38.03.12.06.23.09.38Z"/>
            <path d="M5.26,15.02c.3.02.29.2.23.24-.08.05-.12-.05-.23-.24Z"/>
            <path d="M12.59,2.8c.01-.12.03-.23-.05-.33-.01-.01.03-.06.05-.1.03.02.07.04.08.07.02.08.01.16.03.24.01.06-.01.1-.1.12Z"/>
            <path d="M15,13.56c.02.07.03.14.04.2-.12-.08-.27.03-.38-.03,0,0-.04.02.34-.17Z"/>
            <path d="M9.62,7.99c-.05.13-.08.24-.12.34-.15-.14-.13-.24.12-.34Z"/>
            <path d="M20.67,7.77s.08-.03.12-.05c.08.19.08.2-.04.32-.04-.2-.02-.13-.08-.28Z"/>
            <path d="M25.46,6.07s.06.07.09.07c.16-.02.17.07.17.17-.19,0-.22-.02-.26-.23Z"/>
            <path d="M23.31,2.83c-.04-.12-.01-.19.11-.21.05.07.1.13.16.2-.11.1-.16-.12-.27,0Z"/>
            <path d="M13.38,12.04c.18-.01.13.17.11.35-.15,0-.12-.05-.11-.35Z"/>
            <path d="M24.15,7.28c-.11.06-.21.12-.37.06.08-.05.15-.09.23-.15.15.1.13.1.13.09Z"/>
            <path d="M18.91,9.63c-.05.1-.09.18-.13.26-.09-.07-.1-.11-.04-.22q.03-.06.17-.04Z"/>
            <path d="M18.66,1.18c.06-.05.11-.09.05-.19,0,0,0,0,.07-.05.05.08.1.15.16.25-.12,0-.2.05-.29-.01Z"/>
            <path d="M25.43,4.32s.06.08.1.12c-.06.04-.13.08-.19.12q-.07-.13.09-.24Z"/>
            <path d="M18.85,5.28c.03.06.06.11.09.15q-.11.15-.22.09c.04-.07.08-.15.13-.25Z"/>
            <path d="M18.96,10.13c-.06-.05-.09-.09-.13-.13.07-.08.14-.11.25-.05-.03.05-.07.1-.12.18Z"/>
            <path d="M7.93,16.18c.06.2.05.22-.19.24.04-.05.09-.09.09-.12,0-.07.03-.09.1-.12Z"/>
            <path d="M5.17,9.31c0-.18.3-.19.22.02-.07,0-.14-.01-.22-.02Z"/>
            <path d="M17.76,5.46q.17.02.18.16c-.15,0-.15-.01-.18-.16Z"/>
            <path d="M15.2,12.79c.13.08.3-.05.38.14-.1-.03-.17-.08-.26-.01-.04.03-.1-.02-.13-.13Z"/>
            <path d="M21.28,8.09c.1,0,.2-.1.32.03-.13.02-.24.08-.32-.03Z"/>
            <path d="M22.66,2.59c0,.08,0,.11,0,.16-.2-.04-.15-.02-.19-.11.06-.02.11-.03.2-.06Z"/>
            <path d="M5.52,8.61c-.04-.18,0-.23.2-.25,0,0,.02-.03-.2.25Z"/>
            <path d="M15.75,15.7c.14-.07.21-.01.23.17-.05.03,0,.05-.23-.17Z"/>
            <path d="M25.16,6.97c.02-.08.04-.15.06-.22.14.11.13.15-.06.22Z"/>
            <path d="M19.06,5.13c-.06.06.02.04-.28.07,0,0,0-.01-.01-.02.03-.11.08-.15.18-.16,0,0,.01-.03-.03.09.1-.04.06-.04.14,0Z"/>
            <path d="M17.61,3.26s-.09.04-.14.06q-.07-.09-.02-.2s.09.08.15.14Z"/>
            <path d="M13.84,14.23c-.06-.14.1-.14.16-.19.01.09,0,.18-.16.19Z"/>
            <path d="M21.02,5.01c.07,0,.12.02.18.03-.02.1-.11.1-.19.13,0-.06,0-.1.01-.16Z"/>
            <path d="M25.15,3.63c-.01-.07-.02-.12-.03-.19.1-.01.14.03.15.09,0,.04,0,.04-.12.1Z"/>
            <path d="M24.71,7.63c-.06-.03-.11-.05-.17-.08.09-.13.32-.04.17.08Z"/>
            <path d="M14.04,12.43s.04-.09.08-.13c.02-.02.08-.03.09-.01.02.02.03.07.01.08-.05.04-.11.06-.16.09,0,0-.02-.02-.02-.02Z"/>
            <path d="M20.32,6.31c-.11.02-.16.03-.25.04.03-.06.05-.1.08-.16.06.04.1.07.17.13Z"/>
            <path d="M19.55,1.1c0,.08,0,.14,0,.2-.08,0-.03.02-.18-.11.05-.03.1-.05.17-.09Z"/>
            <path d="M19.31.74c0-.06,0-.09,0-.14.14-.04.13.1.2.13-.06,0-.13,0-.21,0Z"/>
            <path d="M25.4,6.71c-.1-.07-.03-.12.01-.19.04.03.07.05.11.08-.05.04-.08.08-.13.12Z"/>
            <path d="M17.71.92c-.06-.08-.25-.01-.24-.17.05.09.24.02.24.17Z"/>
            <path d="M21.05,2.24c.08.08.18.11.09.22-.09-.05-.11-.11-.09-.22Z"/>
            <path d="M20.07,4.66s.08.07.13.11c-.06.04-.1.06-.16.1-.02-.21-.03-.18.03-.21Z"/>
            <path d="M13.84,4.47c-.07.05-.15.11-.23.17,0-.12.03-.15.23-.17Z"/>
            <path d="M22.03,7.57c-.07-.04-.1-.05-.14-.08.02-.04.04-.08.06-.12.1.04.07.1.08.19Z"/>
            <path d="M20.8,6.27c-.05-.05-.09-.11-.14-.16.13-.03.16-.01.14.16Z"/>
            <path d="M20.77,1.84c.01-.06.03-.1.05-.18.06.06.1.09.16.15-.09.01-.14.02-.21.03Z"/>
            <path d="M24.08,1.2c-.13,0-.17-.06-.14-.16.1.01.16.05.14.16Z"/>
            <path d="M7.73,4.95c-.03-.09-.04-.16.06-.21.05.08.05.14-.06.21Z"/>
            <path d="M17.89,3.52c-.07.03-.12.06-.16.08-.07-.04-.07-.08-.02-.12.06-.05.12-.04.18.04Z"/>
            <path d="M25.1,5.67c-.07.11-.19.09-.29.14.02-.13-.03-.1.29-.14Z"/>
            <path d="M7.71,7.1q-.11.04-.19-.07.12-.03.19.07Z"/>
            <path d="M22.66,15.72c-.16-.03-.13.11-.23.2,0-.1,0-.15,0-.21.24-.04.2-.04.23,0Z"/>
            <path d="M17.37,5.8c-.08-.02-.15-.03-.23-.05.03-.11.23-.12.23.05Z"/>
            <path d="M19.07,15.39c-.07.11,0,.07-.21.19-.02-.01-.03-.03-.07-.06.3-.15.28-.13.28-.14Z"/>
            <path d="M5.95,16.26c.05.16.01.2-.14.22.1-.14.06-.08.14-.22Z"/>
            <path d="M17.59,1.85c.05.05.09.09.13.12-.03.06-.07.07-.12.04-.06-.04-.06-.09,0-.16Z"/>
            <path d="M18.53,16.03c-.07-.15-.06-.16.13-.21-.05.07-.09.14-.13.21Z"/>
            <path d="M7.02,7.89c.16-.08.16-.08.17.07-.06-.03-.11-.05-.17-.07Z"/>
            <path d="M18.8,4.73c-.12.02-.17-.05-.22-.14.25,0,.19.16.22.14Z"/>
            <path d="M20.76,7.58c.08-.03.15-.06.23-.09-.01.04,0,.08-.03.1-.06.04-.12.06-.2,0Z"/>
            <path d="M18.62,16.23c-.07.01-.13.02-.21.03.05-.08.09-.13.18-.11.02,0,.02.04.03.08Z"/>
            <path d="M17.31,14.04q.06-.13.18-.1c-.06.05-.06.14-.18.1Z"/>
            <path d="M17.23,12.58s-.08-.03-.11-.04c0-.07.02-.1.09-.09.08.02.07.06.02.13Z"/>
            <path d="M18.73,5.74c-.08-.04-.15-.05-.17-.09-.02-.04.02-.08.09-.08.02.05.04.09.08.17Z"/>
            <path d="M18.89,4.86c-.06,0-.12,0-.22,0,.07-.07.1-.1.13-.13,0,0,0,0,0,0,.1.14.09.13.1.13Z"/>
            <path d="M22.81,6.69c-.02.06-.03.1-.04.14-.06-.01-.04.02-.07-.13.03,0,.07,0,.12-.01Z"/>
            <path d="M21.32,5.92c.08.04.14.09.08.2-.14-.2-.14-.16-.08-.2Z"/>
            <path d="M3.96,13.4c-.17-.05-.04-.19.01-.15.08.05.03.1-.01.15Z"/>
            <path d="M25.71,6.02c-.17-.04-.17-.04-.1-.19.03.06.06.11.1.19Z"/>
            <path d="M18.07,5.63q.14-.1.24.04c-.08-.01-.15-.02-.24-.04Z"/>
            <path d="M19.77,1.64q.1-.12.21-.02c-.08,0-.13.01-.21.02Z"/>
            <path d="M18.84,9.37q.14,0,.07.17c-.03-.07-.05-.12-.07-.17Z"/>
            <path d="M15.22,4.11c-.08-.05-.11-.09-.04-.16.07.03.1.07.04.16Z"/>
            <path d="M7.32,7.55s.04-.08.07-.13c.03.02.06.03.06.05.03.09-.05.09-.14.08Z"/>
            <path d="M7.25,7.47c-.07.15-.04.13-.13.1.08-.14.05-.12.13-.1Z"/>
            <path d="M16.4,10c-.11-.12-.04-.18.02-.24.05.02.05-.02-.02.24Z"/>
            <path d="M18.31,11.79c-.03.1-.07.15-.17.12,0-.1.06-.12.17-.12Z"/>
            <path d="M25.1,7.23c-.05.02-.1.05-.19.08.03-.12.06-.17.19-.08Z"/>
            <path d="M14.3,11.06c-.07-.08.04-.13.05-.21.16.15-.08.19-.05.21Z"/>
            <path d="M17.78.32c-.1-.08-.14-.13-.07-.22.02.06.04.12.07.22Z"/>
            <path d="M21.2,7.16c.04.05.09.1.15.17q-.13,0-.15-.17Z"/>
            <path d="M21.27.05c-.11.06-.15,0-.2-.06.1-.04.15,0,.2.06Z"/>
            <path d="M5.65,2.51c.07-.05.12-.03.18.07-.22-.03-.19,0-.18-.07Z"/>
            <path d="M19.41,15.64q-.14-.12-.04-.19c.07.04.04.1.04.19Z"/>
            <path d="M21.66,5.51c.03.09.04.15-.07.2-.01-.07-.04-.14.07-.2Z"/>
            <path d="M9.94.49c-.01-.11-.04-.18.06-.21.06.04.06,0-.06.21Z"/>
            <path d="M18.85,15.99c-.02.12-.07.12-.16.07.05-.02.09-.04.16-.07Z"/>
            <path d="M21.74,8.42c.06-.04.11-.07.15-.09.01,0,.03.01.03.02,0,.09-.04.13-.18.07Z"/>
            <path d="M9.33,17.55c.07.05.11.09.17.13q-.15.02-.17-.13Z"/>
            <path d="M16.17,13.37c-.06-.05-.09-.07-.1-.09,0-.01.04-.06.05-.05.03,0,.07.02.08.05,0,.02-.02.05-.03.1Z"/>
            <path d="M21.65,7.5q-.13-.1.02-.18c0,.06-.01.11-.02.18Z"/>
            <path d="M20.01,7.62c.09.1.11.06,0,.16-.07-.06-.08-.02,0-.16Z"/>
            <path d="M7.85,15.24s.06.07.09.09c-.04.03,0,.03-.19-.02.04-.03.07-.05.11-.08Z"/>
            <path d="M6.22,8.48c.02.06.04.1.06.18-.07-.03-.11-.04-.13-.07-.06-.06,0-.07.07-.11Z"/>
            <path d="M6.68,5.52q-.16.06-.18-.08c.06.02.1.04.18.08Z"/>
            <path d="M5.73,8.36c.08-.06.08-.09.18-.07,0,0,.02.04.01.04-.03.02-.06.04-.1.04-.03,0-.1-.03-.09-.02Z"/>
            <path d="M21.07,4.07c-.02.12-.1.11-.17.11-.03-.05-.06-.02.17-.11Z"/>
            <path d="M6.37.88c.08.06.08.04-.02.13-.06-.05-.07-.02.02-.13Z"/>
            <path d="M24.13,4.06c-.07.06-.11.1-.17.16,0-.11.02-.16.17-.16Z"/>
            <path d="M19.41,15.83c.14-.05.15.01.17.11-.06-.04-.11-.07-.17-.11Z"/>
            <path d="M18.34,15.63c0,.06,0,.13-.15.09.13-.14.1-.13.15-.09Z"/>
            <path d="M24.45,5.72c.09.06.06.02.11.14-.12,0-.13-.05-.11-.14Z"/>
            <path d="M19.61,5.19c.03.06.05.09.07.13q-.12.01-.07-.13Z"/>
            <path d="M20.96,4.45c-.08.08-.15.1-.2,0,.07,0,.14,0,.2,0Z"/>
            <path d="M6.67,8.04c.05.03.09.05.14.08-.06.03-.1.06-.17.1.01-.07.02-.12.04-.18Z"/>
            <path d="M4.92,15.22c.06-.12.12-.08.19-.03-.06,0-.11.02-.19.03Z"/>
            <path d="M18.08,4.03c.03.19.06.17-.08.08.09-.09.09-.08.08-.08Z"/>
            <path d="M18.36,4.03c.1.01.1.06.08.15-.11-.04-.05-.17-.08-.15Z"/>
            <path d="M16.05,5.2c.06.1-.02.13-.04.18-.07-.03-.07,0,.04-.18Z"/>
            <path d="M24.14,7.28c.17-.12.14-.11.17-.07-.04.04-.06.13-.17.07,0,0,0,0,0,0Z"/>
            <path d="M22.98,14c.03-.07.04-.11.06-.15q.06.07-.06.15Z"/>
            <path d="M21.76,4.36c-.05-.04-.09-.07-.12-.09.07-.01.15-.04.12.09Z"/>
            <path d="M16.96,16.44c-.04-.11-.06-.08.05-.11,0,.12.02.1-.05.11Z"/>
            <path d="M5.27,9.03c-.14.05-.16-.07-.12-.08.07-.02.1.02.12.08Z"/>
            <path d="M19.97,1.32c.06.06.09.08.13.12-.06,0-.1,0-.15.01,0-.04,0-.07.02-.14Z"/>
            <path d="M25.94,2.58s-.03-.06-.05-.09c0,0,.04-.03.05-.02.02.02.04.05.06.08-.02.01-.04.02-.06.04Z"/>
            <path d="M14.02,4.39c-.03-.06-.04-.09-.07-.14.06,0,.1.01.15.02-.03.04-.05.07-.09.13Z"/>
            <path d="M19.16,5.67c.12-.03.13,0,.14.07-.08,0-.04.03-.14-.07Z"/>
            <path d="M25.79,6.73s-.07-.04-.07-.05c0-.02.02-.06.05-.06.02,0,.05.01.08.02-.02.03-.03.06-.06.1Z"/>
            <path d="M24.82,5.58s-.08-.04-.16-.08c.09,0,.14-.01.21-.02-.06.12-.05.1-.05.1Z"/>
            <path d="M20.97.11c.08.08.07.12.01.14-.01,0-.04,0-.06-.01.01-.03.03-.07.05-.13Z"/>
            <path d="M7.65,9.11c-.08.06-.05.06-.13.02.07-.08.04-.06.13-.02Z"/>
            <path d="M18.4,7.7s-.06-.03-.07-.05c0-.02,0-.05.03-.06.01,0,.06,0,.06.01,0,.02,0,.05-.02.09Z"/>
            <path d="M17.41,10.38c-.11.06-.06.06-.18,0,.06-.06,0-.06.18,0Z"/>
            <path d="M13.09,11.14s-.07-.03-.13-.05c.09-.06.12-.03.13.05Z"/>
            <path d="M5.87,12.36c-.02.06-.03.09-.04.14-.02-.01-.04-.01-.05-.02-.04-.06,0-.09.09-.12Z"/>
            <path d="M13.86,11.38q.07-.11.17-.05c-.07.09-.22.03-.17.05Z"/>
            <path d="M12.74,13.2s-.05.1-.12.02c0,0,.02-.05.03-.05.03,0,.05.01.09.03Z"/>
            <path d="M15.29-.05c.06,0,.05-.02.05.09-.08,0-.06.02-.05-.09Z"/>
            <path d="M15.23,13.53c-.03.1-.08.11-.14.1-.03-.06-.05-.03.14-.1Z"/>
            <path d="M8.17,15.24c-.1.05-.07.06-.14-.02.07-.04.03-.05.14.02Z"/>
            <path d="M18.01,13.77c.08-.06.12-.06.16.04-.06-.01-.1-.02-.16-.04Z"/>
            <path d="M7.58,15.6c-.06.01-.12.02-.19.03.06-.1.12-.07.19-.03Z"/>
            <path d="M18.28,16.09c.02.12.03.1-.06.11-.01-.12-.03-.1.06-.11Z"/>
            <path d="M24.85,15.08c-.06.07-.03.07-.13.02.05-.08.02-.07.13-.02Z"/>
            <path d="M17.08,16.51c.06.03.11.05.17.08q-.12.04-.17-.08Z"/>
            <path d="M3.17,18.99c.06,0,.13-.02.19.07-.23-.04-.2-.02-.19-.07Z"/>
            <path d="M20.02,1.1c-.13,0-.13-.05-.09-.13.03.04.05.07.09.13Z"/>
            <path d="M17.77,3.21c.09.07.05.1-.04.14-.02-.12-.02-.08.04-.14Z"/>
            <path d="M14.38,3.91c-.13.06-.15.02-.17-.07.06.03.1.04.17.07Z"/>
            <path d="M17.98,4.37s-.07.06-.13.11c0-.11.05-.12.13-.11Z"/>
            <path d="M16,13.56s.06-.07.09-.12q.02.09-.09.12Z"/>
            <path d="M8.03,7.16c-.09.03-.13,0-.14-.06.08-.03.11,0,.14.06Z"/>
            <path d="M18.97,5.64q-.09.05-.13-.03c.05.01.09.02.13.03Z"/>
            <path d="M15.06,7.15s-.07.02-.1.03c0,0-.02-.04-.02-.04.03-.02.06-.03.1-.05,0,.02.02.04.03.05Z"/>
            <path d="M24.82,5.57c.05.21.04.17-.14.03.17-.03.15-.02.14-.03Z"/>
            <path d="M23.81,6.2c0,.05.02.1.03.17-.11-.05-.04-.11-.03-.17Z"/>
            <path d="M24.26,14.93s-.1.02-.18.03c.08-.09.13-.05.18-.03Z"/>
            <path d="M16.37,5.86c.04-.08,0-.06.15-.06,0,.06.03.04-.15.06Z"/>
            <path d="M16.74,4.21c-.12,0-.11.03-.03-.1.04,0,.03-.01.02.1h0Z"/>
            <path d="M12.6,1.83s-.05.03-.08.04c-.01,0-.04-.02-.05-.04,0-.01.01-.04.03-.05.01,0,.04,0,.06,0,.01.01.02.02.04.04Z"/>
            <path d="M8.49,5.7c-.05-.1-.04-.08.01-.1.04.1.05.08-.01.1Z"/>
            <path d="M23.88,14.38c-.11.05-.07.06-.16,0,.06-.06.02-.06.16,0Z"/>
            <path d="M7.99,2.36s.07,0,.11,0c0,.01,0,.03,0,.03-.13.03-.11.02-.11-.02Z"/>
            <path d="M17.96.27c0,.06.03.04-.11.07,0-.08-.02-.06.11-.07Z"/>
            <path d="M19.06,5.13c-.07-.05-.05-.03-.1-.1,0,0-.02,0,.12,0,0,.04-.01.07-.02.11Z"/>
            <path d="M17.26,4.46c.14-.04.12-.04.13,0-.14.05-.11.06-.13,0Z"/>
            <path d="M19.21,5.51c.12.08.1.06.08.1-.14,0-.12.02-.08-.1Z"/>
            <path d="M18.39,3.44c.04-.11.02-.1.1-.07-.06.11-.04.09-.1.07Z"/>
            <path d="M2.15,11.42s.05.04.05.05c-.07.08-.07.05-.11.02.02-.02.04-.04.06-.07Z"/>
            <path d="M6.8,16.52s-.05.05-.06.04c-.02,0-.05-.03-.06-.05,0-.01.03-.03.04-.05.02.02.04.03.08.06Z"/>
            <path d="M18.37,5.85c0,.12,0,.08-.06.14-.06-.07-.03-.1.06-.14Z"/>
            <path d="M17.76,13.34c.08.06.08.03.01.1-.06-.05-.06-.02-.01-.1Z"/>
            <path d="M15.43,13.57c.13-.08.1-.08.14-.02-.13.08-.1.07-.14.02Z"/>
            <path d="M17.44,9.97s-.08,0-.1-.03c-.03-.02.02-.06.07-.04.07.02.06,0,.03.07Z"/>
            <path d="M19.87,2.01q-.06.1-.18.04c.2-.05.18-.04.18-.04Z"/>
            <path d="M17.7,2.32c-.05.06-.08.09-.14.16,0-.11.02-.15.14-.16Z"/>
            <path d="M19.98,1.99s0,.03-.11.01c.03-.08-.04-.11.11-.01Z"/>
            <path d="M18.41,2.18s.05.02-.05.1c-.04-.04-.05-.02.05-.1Z"/>
            <path d="M17.73,2.26c.02-.09,0-.08.08-.06-.05.09-.03.07-.08.06Z"/>
            <path d="M19.26,3.52c.06.1.04.06.04.17-.13-.13-.12-.09-.04-.17Z"/>
            <path d="M3.11,13.22c-.07.06-.04.07-.13.02.07-.06.04-.05.13-.02Z"/>
            <path d="M5.3,8.77c0,.06.03.04-.09.06-.01-.05-.03-.04.09-.06Z"/>
            <path d="M5.34,14.72c-.1.1-.07.08-.14.04.06-.07.03-.06.14-.04Z"/>
            <path d="M19.16,5.39s.06.02.07.04c0,.01-.02.04-.03.05-.02,0-.05,0-.06-.02,0-.01.01-.04.02-.07Z"/>
            <path d="M13.48,5.33c-.09.05-.06.06-.13,0,.07-.06.03-.05.13,0Z"/>
            <path d="M15.18,11.55c.07-.14.05-.12.1-.1-.08.14-.06.12-.1.1Z"/>
            <path d="M14.12,17.06c-.07-.06-.09-.1-.04-.14.07,0,.06-.02.04.14Z"/>
            <path d="M8.02,8.58s-.05.07-.08.1c-.02-.01-.03-.02-.03-.03-.01-.06,0-.1.11-.07Z"/>
            <path d="M6.28,16.23s.07-.02.1-.03c0,0,.02.02.01.03-.03.02-.06.04-.09.06,0-.02-.02-.04-.03-.05Z"/>
            <path d="M14.19,13.82c.09.08.09.06.05.09-.09-.08-.08-.06-.05-.09Z"/>
            <path d="M25.7,4.49c-.12.02-.1.02-.11,0,.12-.05.1-.05.11,0Z"/>
            <path d="M8.94,16.88s.05-.04.08-.06c0,0,.02.02.02.02-.08.09-.06.08-.11.04Z"/>
            <path d="M16.86,16.47c.09.04.08.01.03.1-.08-.04-.06-.02-.03-.1Z"/>
            <path d="M16.47,16.62s.04-.05.06-.07c0,0,.03.01.03.01-.05.1-.04.09-.09.06Z"/>
            <path d="M8.17,5.37s.02-.03.04-.03c.04,0,.08,0,.12.01-.17.05-.14.05-.15.02Z"/>
            <path d="M14.86,3.14s-.05-.03-.07-.05c0,0,.02-.03.02-.03.11.05.09.04.06.08Z"/>
            <path d="M17.9,2.51c.06-.03.04-.04.09.04-.05.04-.03.04-.09-.04Z"/>
            <path d="M18.99,16.36c-.1.05-.08.05-.1.02.1-.05.08-.05.1-.02Z"/>
            <path d="M17.31,2.45s.01-.06.02-.09q.05.05-.02.09Z"/>
            <path d="M14.09,2.64c-.07.06-.04.06-.12.02.05-.06.02-.06.12-.02Z"/>
            <path d="M14.83,5.45s.03.01.01.1c-.1-.04-.06-.06-.01-.1Z"/>
            <path d="M18.39,6.87s.02.06.03.09c-.01,0-.03.01-.03,0-.05-.1-.04-.08,0-.09Z"/>
            <path d="M22.86.6c-.08.07-.04.07-.13.04.05-.06.02-.05.13-.04Z"/>
            <path d="M7.78,8.75c-.09.04-.06.04-.11,0,.08-.06.06-.06.11,0Z"/>
            <path d="M18.89,4.87c.06-.01.12-.03.21-.05-.12.15-.2.04-.21.05Z"/>
            <path d="M24.56,6.29s.11.08.01.14c-.09-.07,0-.13-.01-.14Z"/>
            <path d="M12.06,1.46c-.09.04-.06.05-.12-.01.06-.04.03-.05.12.01Z"/>
            <path d="M17.25.44s-.05,0-.08,0c0-.01,0-.03,0-.03.1,0,.08,0,.07.04Z"/>
            <path d="M13.17,1.08c-.05.05-.02.05-.09,0,.05-.04.02-.04.09,0Z"/>
            <path d="M10.65,1.33c-.08.06-.05.07-.13.01.07-.05.03-.05.13-.01Z"/>
            <path d="M8.29,1.62c.06.09.06.06,0,.11-.07-.06-.06-.03,0-.11Z"/>
            <path d="M22.56,7.26c-.1-.08-.09-.05-.06-.13.05,0,.03-.02.06.13Z"/>
            <path d="M22.23,7.31s-.06-.03-.06-.04c0-.02.02-.04.03-.05.02,0,.05,0,.06.02,0,.01-.01.04-.03.07Z"/>
            <path d="M21.66,7.85c.11-.02.09-.02.1,0-.1.03-.08.03-.1,0Z"/>
            <path d="M14.15,9.21s-.04-.02-.04-.03c0-.01.02-.03.03-.04.01,0,.04.01.04.02,0,.01-.02.03-.03.05Z"/>
            <path d="M19.93,8.25s-.06.04-.08.05c0,0-.04-.03-.03-.03.07-.08.06-.06.12-.03Z"/>
            <path d="M23.23,7.78c0,.12,0,.1-.05.1,0-.13-.01-.11.05-.1Z"/>
            <path d="M19,8.56s-.04-.02-.05-.03c.01-.02.03-.03.04-.05,0,0,.03,0,.03.01,0,.02-.01.04-.02.07Z"/>
            <path d="M10.42,1.04c-.11-.02-.11-.06-.09-.11.06-.02.04-.04.09.11Z"/>
            <path d="M13.8,4.98s-.04.04-.05.05c0,0-.07-.02,0-.07,0,0,.03.01.06.03Z"/>
            <path d="M18.7,5.28c0-.05,0-.08-.01-.13.13.06.12.04.01.13Z"/>
            <path d="M18.94,4.55c0,.06-.03.08-.11.07.09-.1.07-.09.11-.07Z"/>
            <path d="M12.69,11.18c-.1.07-.07.07-.11.03.1-.07.08-.07.11-.03Z"/>
            <path d="M3.98,12.76c-.08-.06-.08-.03-.04-.1.08.04.06.02.04.1Z"/>
            <path d="M17.21,5.54c-.08.07-.05.07-.12.02.04-.05,0-.04.12-.02Z"/>
            <path d="M16.74,4.22c.12.05.03.11,0,.09-.08-.04.03-.11,0-.09Z"/>
            <path d="M6.25,6.02c0-.13,0-.11.04-.11.02.13.03.11-.04.11Z"/>
            <path d="M15.7,13.02c.13-.03.1-.03.12,0-.14.04-.11.04-.12,0Z"/>
            <path d="M.21,6.91s.09-.08.11,0c0,0-.02.04-.03.03-.02,0-.04-.02-.07-.04Z"/>
            <path d="M.4,2.44c-.09.05-.13.04-.14-.06.05.02.09.04.14.06Z"/>
            <path d="M13.74,14.52c-.14.09-.12.09-.15.06.05-.08.02-.06.15-.06Z"/>
            <path d="M24.93,1.76c0-.1,0-.08.04-.08-.02.1,0,.08-.04.08Z"/>
            <path d="M18.47,2.77s-.04.03-.06.05c-.03-.03-.07-.04.02-.08,0,0,.02.02.04.04Z"/>
            <path d="M19.72,5.89c.06-.02.1-.03.14-.05q-.03.07-.14.05Z"/>
            <path d="M20.76,2.1s0,.05,0,.07c0,0-.03,0-.03,0-.02-.08-.02-.07.03-.08Z"/>
            <path d="M14.43,2.98s.04.03.05.04c-.02.02-.03.03-.05.04,0,0-.04-.02-.04-.02,0-.02.02-.03.04-.06Z"/>
            <path d="M15.84,6.67c-.08.05-.06.04-.08.01.08-.05.06-.05.08-.01Z"/>
            <path d="M6.4,8.46c-.06.04-.04.05-.1-.01.07-.03.05-.03.1.01Z"/>
            <path d="M4.74,14.24s.04.03.05.05c0,0-.03.03-.03.03-.02,0-.04-.02-.05-.03.01-.01.02-.02.04-.05Z"/>
            <path d="M14.29,11.05s.04.09-.04.11c-.04-.07.06-.11.04-.11Z"/>
            <path d="M13.49,13c-.09.05-.06.05-.11,0,.08-.04.05-.04.11,0Z"/>
            <path d="M12.52,13.25s-.03.04-.04.04c-.01,0-.04-.01-.04-.03,0,0,.02-.03.03-.03.01,0,.03.01.05.02Z"/>
            <path d="M23.54,7.31c.05.07.05.05.02.1-.06-.03-.05,0-.02-.1Z"/>
            <path d="M25.82,7.03s-.04,0-.01-.08c.04,0,.04,0,.01.08Z"/>
            <path d="M8.13,14.54s.03.02.05.03c-.01.01-.02.03-.03.03-.01,0-.03-.01-.04-.02,0,0,.01-.02.03-.04Z"/>
            <path d="M25.33,3.11c-.05.05-.03.05-.09.02.04-.05.02-.04.09-.02Z"/>
            <path d="M23.91,7.12c.02-.08,0-.05.07-.1,0,.09,0,.07-.04.11-.01,0-.02,0-.03,0Z"/>
            <path d="M8.08,1.43s.04.02.05.02c-.01.01-.02.03-.04.04,0,0-.03-.01-.04-.02,0,0,.01-.02.02-.04Z"/>
            <path d="M15.82,13.74c-.01.09,0,.07-.06.07.03-.08.02-.07.06-.07Z"/>
            <path d="M5.33,12.67c.12-.01.1-.02.1.02-.12.02-.1.03-.1-.02Z"/>
            <path d="M13.86,11.37s.04.06,0,.08c-.01,0-.04,0-.06-.01.08-.07.07-.06.07-.06Z"/>
            <path d="M14.42,10.6c-.03.06,0,.05-.08.03.04-.05.02-.04.08-.03Z"/>
            <path d="M5.32,9.96c-.06-.03-.06-.01-.02-.07.06.04.05.02.02.07Z"/>
            <path d="M8.8,15.78c-.08-.05-.07-.03-.02-.09.07.05.06.03.02.09Z"/>
            <path d="M16.75,14.43s.03-.03.05-.05c0,0,.03.01.03.02-.03.07-.03.05-.07.03Z"/>
            <path d="M23.08,13.65c-.04.09-.03.08-.07.06.04-.09.02-.07.07-.06Z"/>
            <path d="M16.71,5.77c-.07.05-.05.04-.09,0,.07-.05.05-.05.09,0Z"/>
            <path d="M17.1,14.87c-.08-.06-.06-.04-.05-.08.08.07.08.05.05.08Z"/>
            <path d="M22.17,14.32s.03.04.04.06c-.07-.02-.06,0-.04-.06Z"/>
            <path d="M6.33,2.44c-.05-.05-.06-.03,0-.09.04.03.05,0,0,.09Z"/>
            <path d="M9.74.53s.02.03.03.04c-.01,0-.03.02-.05.02,0,0-.03-.02-.02-.02,0-.01.02-.03.04-.04Z"/>
            <path d="M21.66,4.95s.05-.02.07-.03c0,0,.02.02.02.03-.08.06-.06.05-.09,0Z"/>
            <path d="M23.54,14.32s-.01.03-.01.03c-.03,0-.06-.01-.09-.02.03-.05.01-.05.1,0Z"/>
            <path d="M22.85,14.46c.07.05.07.03.01.08-.06-.06-.05-.04-.01-.08Z"/>
            <path d="M15.48,1.18c.05.05.05.03.01.08-.05-.04-.04-.02-.01-.08Z"/>
            <path d="M3.26,13.76c-.05-.04-.05-.02-.02-.07.05.03.05.01.02.07Z"/>
            <path d="M20.77,4.83c.02.08.02.07-.01.08-.02-.08-.03-.07.01-.08Z"/>
            <path d="M9.62,16.77c.11-.03.09-.03.11,0-.11.04-.09.05-.11,0Z"/>
            <path d="M16.59,7.5s-.03-.03-.04-.04c.02-.01.03-.03.05-.03,0,0,.03.02.03.03,0,.01-.03.02-.04.04Z"/>
            <path d="M19.07,15.39c.1-.05.08-.05.09-.02-.11.02-.1.01-.09.02Z"/>
            <path d="M9.86,6.73c-.02-.05-.04-.04.08-.08.02.06.04.04-.08.08Z"/>
            <path d="M.89,9.89c-.12.06-.1.06-.12.01.12-.06.1-.06.12-.01Z"/>
            <path d="M7.82,2.84s.05.04.06.06c0,0-.03.04-.03.03-.09-.04-.06-.04-.03-.09Z"/>
            <path d="M16.85,16.18s-.03.04-.04.04c0,0-.04-.02-.04-.02,0-.01.01-.03.03-.04,0,0,.03.01.05.02Z"/>
            <path d="M7.85,17.7s.06,0,.09,0c0,.01,0,.03-.01.03-.1,0-.08,0-.08-.04Z"/>
            <path d="M9.88,8.29c.06.03.06.01.02.09-.05-.05-.04-.03-.02-.09Z"/>
            <path d="M6.43,8.8s.04.05.04.05c0,.02-.03.04-.05.04-.01,0-.04-.03-.04-.04,0-.02.03-.03.06-.06Z"/>
            <path d="M22.35.75c-.06.04-.04.03-.07,0,.06-.03.04-.03.07,0Z"/>
            <path d="M8.28,17.76s.06.05.07.07c0,0-.03.03-.03.03-.08-.02-.05-.06-.04-.1Z"/>
            <path d="M7.42,8.62s.06,0,.11,0c0,.03-.01.06-.03.12-.09-.13-.08-.12-.08-.11Z"/>
            <path d="M18.27,16.28c-.02.05,0,.05-.08.02.02-.04,0-.03.08-.02Z"/>
            <path d="M13.7,2.32s.05.02.01.07c-.07-.04-.06-.02-.01-.07Z"/>
            <path d="M5.93,8.64c-.06.05-.03.05-.11.02.03-.05,0-.04.11-.02Z"/>
            <path d="M6.93,10.56c.05.1.05.06,0,.13-.07-.05-.06-.02,0-.13Z"/>
            <path d="M9.29,13.43c-.05.04-.04.03-.07.01.04-.04.03-.04.07-.01Z"/>
          </g>
        </g>
      </g>
    </mask>
  </defs>
  <g class="cls-1">
    <g>
      <g>
        <path d="M22.38,13.87c-.71,3.99-3.8,7.28-7.91,7.94-4.11.66-8.02-1.5-9.88-5.07l-.29.05c1.89,3.74,5.96,6,10.22,5.32,4.26-.69,7.46-4.12,8.16-8.27l-.29.05ZM11.49,2.11c-4.26.69-7.46,4.12-8.16,8.27l.29-.05c.71-3.99,3.8-7.27,7.91-7.93,4.11-.66,8.02,1.5,9.88,5.07l.29-.05c-1.89-3.74-5.96-6-10.22-5.32Z"/>
        <path d="M23.05,6.25c-.36-.11-.58-.48-.52-.86.07-.44-.23-.84-.66-.89-.37-.04-.66-.37-.66-.75,0-.44-.37-.79-.8-.76-.19.01-.37-.05-.51-.16s-.24-.27-.28-.46c-.08-.43-.5-.7-.92-.6-.36.09-.74-.1-.88-.46-.16-.41-.62-.6-1.01-.42-.34.16-.75.03-.95-.3-.23-.37-.71-.48-1.06-.23-.31.22-.73.17-.98-.12-.29-.33-.78-.34-1.09-.03-.27.27-.69.3-.99.07-.34-.27-.83-.19-1.07.17-.21.32-.62.42-.96.25-.38-.2-.85-.04-1.02.37-.16.35-.54.53-.9.42-.41-.13-.84.12-.94.55-.09.38-.44.62-.81.58-.43-.05-.81.27-.83.71-.02.39-.32.69-.7.72-.43.03-.74.42-.7.86.04.38-.2.74-.56.84-.42.11-.66.55-.54.97.11.37-.07.77-.41.93-.32.15-.48.49-.43.82.01.08.04.16.07.23.17.34.07.77-.24.99-.32.23-.41.65-.24.99l1.42-.23C3.56,6.05,6.91,2.4,11.42,1.67c4.51-.72,8.78,1.7,10.73,5.68l1.42-.23c.07-.38-.15-.76-.52-.87ZM24.44,13.54l-1.32.21c-.68,4.4-4.03,8.05-8.54,8.78-4.51.73-8.78-1.69-10.73-5.68l-1.33.21c.23.11.38.33.42.58.02.1.01.21-.01.31-.11.43.16.86.58.95.37.08.62.42.6.81-.03.44.3.82.73.83.38,0,.69.3.73.69,0,.01,0,.02,0,.04.06.42.45.71.86.64.37-.06.73.17.84.54.12.42.56.65.97.51.35-.13.75.04.92.38.19.39.67.54,1.04.32.08-.05.17-.08.25-.09.27-.04.54.07.71.3.26.35.75.41,1.08.13.29-.25.71-.24.99.03.32.3.81.27,1.08-.07.24-.3.66-.36.98-.16.36.24.84.11,1.05-.27.19-.34.58-.48.93-.34.4.17.85-.04.99-.46.12-.37.49-.58.86-.5.42.09.83-.2.89-.63.06-.38.38-.66.76-.65.43.01.78-.35.77-.79,0-.19.06-.37.18-.51.11-.14.27-.24.46-.27.42-.07.71-.49.62-.92,0-.01,0-.02,0-.03-.06-.37.15-.73.5-.85.4-.14.61-.61.45-1.02-.14-.36,0-.77.33-.96.37-.22.49-.71.27-1.08-.19-.31-.14-.72.12-.97Z"/>
        <path d="M18.37,14.51c-.78,1.83-2.41,3.22-4.46,3.55-2.05.33-4.02-.48-5.3-1.98l-.33.05c1.34,1.66,3.46,2.57,5.68,2.22,2.21-.36,3.97-1.89,4.75-3.89l-.33.05ZM12.05,5.85c-2.21.36-3.97,1.89-4.75,3.89l.33-.05c.78-1.83,2.41-3.22,4.47-3.55,2.05-.33,4.02.48,5.3,1.98l.33-.05c-1.34-1.66-3.46-2.57-5.67-2.22Z"/>
        <path d="M9.1,16.01c1.19,1.26,2.93,1.92,4.75,1.63,1.81-.29,3.27-1.47,4.04-3.04l-8.78,1.41Z"/>
        <path d="M16.91,8.19l-8.79,1.41c.76-1.58,2.22-2.76,4.04-3.05,1.81-.29,3.56.38,4.75,1.64Z"/>
        <polygon points="0 11.36 25.16 7.31 25.21 7.6 .04 11.65 0 11.36"/>
        <polygon points=".79 16.6 25.96 12.55 26 12.84 .84 16.89 .79 16.6"/>
      </g>
      <g>
        <path d="M4.48,13.53c.05.33.02.63-.08.92-.1.29-.27.53-.5.72s-.5.31-.81.36c-.31.05-.6.02-.88-.09-.28-.11-.51-.29-.69-.53-.18-.24-.3-.53-.35-.85-.05-.36-.03-.68.07-.97.1-.29.27-.53.5-.7.23-.18.5-.29.82-.34.31-.05.61-.03.88.07.27.1.5.27.68.52.19.24.3.55.36.9ZM2.98,14.81c.05,0,.1-.02.14-.05.04-.02.07-.06.09-.09.02-.04.04-.08.06-.12s.02-.1.03-.15c0-.05,0-.11,0-.16,0-.06,0-.11,0-.17s-.01-.11-.02-.16c0-.05-.01-.1-.02-.15,0-.03,0-.05,0-.06,0-.02,0-.04-.01-.07,0-.05-.02-.1-.02-.16,0-.06-.02-.11-.03-.17-.01-.06-.03-.11-.05-.17-.02-.05-.04-.1-.07-.15-.03-.05-.06-.09-.1-.12-.03-.03-.08-.06-.13-.07-.05-.01-.11-.02-.16,0-.05,0-.1.02-.14.05s-.07.05-.1.09-.04.07-.06.12c-.02.04-.03.09-.03.14,0,.05,0,.1,0,.15,0,.05,0,.1,0,.15,0,.05.01.1.02.15,0,.05.01.09.02.14,0,.03,0,.06.01.07,0,.01,0,.03,0,.06,0,.04.01.09.02.13,0,.05.01.09.02.14.01.05.02.1.03.14.01.05.03.09.04.14.02.05.04.09.06.13.02.04.04.08.07.11.03.03.06.06.09.08s.07.04.11.04c.04,0,.08,0,.13,0Z"/>
        <path d="M6.53,14.92c-.35.06-.9.15-1.63.26l-.11-.75.31-.05-.29-1.89-.31.05-.11-.73,2.05-.33c.17-.03.31-.03.45-.02.13.01.25.05.36.11s.19.14.26.26c.07.11.12.26.14.43.03.2,0,.38-.11.53-.11.15-.27.26-.5.35.21.01.36.06.46.13s.16.17.18.3l.03.19s.01.07.02.09c0,.02.03.04.05.06.02.02.06.03.11.03.05,0,.11,0,.18-.02l.11.75-.53.09c-.05,0-.09.01-.12.02-.03,0-.07,0-.12.01-.05,0-.09,0-.12,0-.03,0-.07,0-.11-.01s-.08-.02-.11-.03c-.03-.01-.06-.03-.09-.05-.03-.02-.06-.05-.08-.08-.02-.03-.04-.07-.06-.12-.02-.05-.03-.1-.04-.15l-.06-.41c-.01-.08-.03-.15-.04-.2-.02-.05-.04-.1-.07-.15-.03-.05-.08-.08-.13-.09s-.12-.02-.2,0l-.2.03.11.7.24-.04.11.75ZM6.11,13.03c.07-.01.13-.03.18-.05.05-.02.1-.05.15-.08.05-.03.08-.08.1-.13.02-.05.03-.12.02-.19-.02-.11-.06-.19-.14-.25-.08-.05-.18-.07-.3-.05l-.24.04.11.73.12-.02Z"/>
        <path d="M9.72,11.7l-.3.05.29,1.89.28-.05.11.75-1.74.28-.11-.75.3-.05-.29-1.89-.29.05-.11-.73,1.74-.28.11.73Z"/>
        <path d="M12.77,13.7c-.17.21-.42.34-.76.4-.2.03-.38.04-.56.02-.18-.02-.35-.07-.51-.14-.16-.07-.3-.17-.42-.29-.12-.12-.23-.26-.31-.44-.08-.17-.14-.37-.18-.58-.04-.25-.04-.48,0-.71.04-.23.11-.43.22-.62.11-.18.26-.34.45-.47s.42-.21.68-.25c.28-.04.51-.02.7.08l.07-.14.64-.1.21,1.41-.58.09c-.02-.08-.04-.15-.07-.21-.02-.06-.05-.12-.09-.18-.04-.06-.08-.11-.12-.14-.04-.03-.1-.06-.17-.07-.07-.02-.14-.02-.23,0-.09.02-.18.04-.24.09-.07.04-.12.1-.16.16-.04.07-.07.13-.09.21-.02.07-.03.15-.03.24,0,.09,0,.17,0,.25,0,.07.02.15.03.24.09.61.35.88.77.81.1-.02.19-.06.25-.13.07-.07.09-.16.08-.26-.01-.07-.02-.13-.04-.17l-.32.05-.1-.63,1.26-.2.27,1.79-.56.09-.12-.2Z"/>
        <path d="M15.11,10.83l-.3.05.29,1.89.28-.05.11.75-1.74.28-.11-.75.3-.05-.29-1.89-.29.05-.11-.73,1.74-.28.11.73Z"/>
        <path d="M18.89,10.23c-.11.02-.19.06-.23.12-.04.06-.05.14-.04.25l.35,2.32-1.22.2-1.24-1.73.13.83c.02.11.05.19.11.23.06.04.14.05.26.03l.11.75-1.29.21-.11-.75c.06,0,.11-.03.15-.05.04-.02.07-.05.09-.07s.03-.06.04-.1c0-.04,0-.08,0-.11,0-.03,0-.07-.01-.13l-.23-1.5-.32.05-.11-.73,1.48-.24,1.31,1.87-.15-.97s0-.06-.01-.07c0-.02,0-.04-.02-.07,0-.03-.02-.05-.04-.07-.02-.02-.04-.03-.06-.05-.03-.02-.06-.02-.1-.02-.04,0-.09,0-.14.01l-.11-.73,1.29-.2.11.73Z"/>
        <path d="M22.15,11.45s.03.07.04.09c.01.02.02.04.04.05.02.01.04.02.06.02l.17-.03.11.75-1.67.27-.12-.75.24-.04c-.03-.23-.1-.33-.19-.32l-.55.09s-.03.01-.04.03c0,.02-.01.03,0,.05,0,.02,0,.04,0,.07,0,.04.02.08.04.13s.05.07.08.06l.17-.03.11.75-1.37.22-.11-.75c.06,0,.11-.02.15-.04.1-.04.17-.12.19-.23,0-.04.02-.13.04-.28l.13-1.47-.43.07-.11-.73,2.01-.32.99,2.34ZM20.73,10.99l-.4-1.02-.07,1.09.46-.07Z"/>
        <path d="M24.04,11.34l.39-.06.07-.76.58-.09.22,1.47-2.57.41-.12-.75.29-.05-.29-1.89-.3.05-.11-.73,1.75-.28.11.73-.31.05.29,1.89Z"/>
      </g>
      <g>
        <g>
          <path d="M7.77,6.99c-.13-.03-.26-.12-.39-.27l-.41-.45c-.14-.15-.21-.3-.23-.43-.01-.13.05-.27.19-.4.13-.13.26-.19.38-.17.12.01.24.08.35.21l.07.08-.26.25-.09-.09c-.06-.06-.1-.1-.14-.12-.04-.02-.08,0-.13.04-.05.05-.06.09-.05.14.02.05.05.1.11.16l.54.6c.06.06.11.1.16.12.05.02.1,0,.14-.04.05-.04.06-.09.05-.15-.01-.05-.05-.11-.11-.18l-.13-.14-.13.12-.15-.17.37-.35.63.69-.17.17-.13-.1c.04.13.02.25-.09.35-.13.12-.25.17-.38.14Z"/>
          <path d="M8.82,6.18c-.09,0-.17-.02-.24-.08-.07-.06-.15-.14-.22-.25l-.67-1.05.3-.2.7,1.09c.05.07.09.13.14.16.04.03.09.03.15,0,.05-.04.08-.08.07-.13,0-.05-.04-.12-.08-.19l-.7-1.09.3-.2.67,1.05c.07.11.12.22.14.31.02.09.01.18-.03.26-.04.08-.11.16-.22.23-.11.08-.21.11-.3.12Z"/>
          <path d="M9.2,3.88l.37-.17,1.04,1.54-.31.14-.22-.34-.26.12.1.4-.31.14-.41-1.83ZM9.96,4.85l-.39-.63.2.72.2-.09Z"/>
          <path d="M10.27,3.43l.45-.12c.19-.05.34-.05.45,0,.11.05.19.15.23.33.03.12.04.21.02.29-.01.08-.06.15-.13.21l.46.8-.36.1-.4-.75-.13.03.2.81-.35.09-.45-1.78ZM10.92,4.06c.08-.02.14-.06.16-.11s.02-.12,0-.21c-.02-.09-.05-.15-.09-.18-.04-.03-.1-.04-.18-.02l-.12.03.13.51.1-.03Z"/>
          <path d="M12,3.05l.4-.04.51,1.8-.33.03-.1-.4-.28.03-.03.41-.34.03.18-1.87ZM12.42,4.22l-.17-.73-.04.75.21-.02Z"/>
          <path d="M13.15,2.98l.25.02.33.98.06-.95.3.02-.12,1.84-.24-.02-.33-1.04-.07,1.02-.31-.02.12-1.84Z"/>
          <path d="M14.67,3.44l-.27-.06.06-.27.89.2-.06.27-.27-.06-.32,1.53-.36-.08.32-1.53Z"/>
          <path d="M15.68,3.41l.73.27-.08.24-.39-.14-.16.46.3.11-.09.25-.3-.11-.19.54.4.15-.08.24-.74-.27.6-1.73Z"/>
          <path d="M16.74,3.84l.69.37-.11.23-.37-.2-.22.43.29.15-.12.23-.29-.15-.26.51.38.2-.11.23-.7-.37.81-1.64Z"/>
        </g>
        <g>
          <path d="M8.98,19.87c-.02-.13.02-.29.1-.47l.27-.55c.09-.19.19-.31.31-.37.12-.06.26-.05.43.04.16.08.26.19.29.3.03.12,0,.26-.07.41l-.05.1-.32-.16.06-.12c.04-.08.06-.14.06-.18s-.03-.08-.09-.11c-.06-.03-.11-.03-.14,0-.04.03-.07.09-.11.16l-.35.73c-.04.08-.06.14-.05.19,0,.05.03.09.09.12.06.03.11.03.15,0,.04-.03.09-.09.12-.17l.08-.18-.16-.08.1-.2.45.23-.41.85-.21-.11.05-.16c-.1.09-.22.1-.35.04-.16-.08-.24-.19-.26-.32Z"/>
          <path d="M10.34,20.6c-.06-.07-.09-.15-.1-.24,0-.09.01-.21.05-.34l.35-1.21.34.1-.36,1.26c-.02.08-.03.15-.03.21,0,.05.04.09.1.11.06.02.11,0,.14-.03s.06-.1.09-.19l.36-1.26.34.11-.35,1.21c-.04.13-.08.23-.14.31-.05.08-.12.12-.21.15-.09.02-.19.01-.32-.03-.13-.04-.22-.09-.28-.16Z"/>
          <path d="M12.01,19.17l.4.05.12,1.87-.33-.04-.02-.41-.28-.04-.12.39-.34-.04.56-1.78ZM12.17,20.41l-.02-.75-.19.72.21.03Z"/>
          <path d="M12.81,19.27l.46-.02c.19,0,.34.02.44.09.1.07.15.19.16.37,0,.12,0,.22-.04.29-.03.07-.08.13-.16.17l.28.89-.37.02-.24-.82h-.13s.03.84.03.84l-.36.02-.08-1.84ZM13.31,20.03c.09,0,.14-.03.18-.07.03-.04.05-.11.04-.21,0-.09-.02-.16-.05-.2s-.09-.06-.17-.06h-.13s.02.54.02.54h.11Z"/>
          <path d="M14.22,19.14l.39-.09.7,1.73-.33.07-.15-.38-.28.06v.41s-.32.07-.32.07l-.03-1.87ZM14.77,20.25l-.25-.7.04.75.21-.05Z"/>
          <path d="M15.01,18.96l.24-.09.71.74-.33-.89.28-.11.64,1.72-.23.09-.73-.8.36.95-.29.12-.64-1.72Z"/>
          <path d="M16.32,18.68l-.24.14-.13-.24.79-.47.13.24-.24.14.75,1.36-.32.19-.75-1.36Z"/>
          <path d="M16.79,18.07l.62-.48.15.21-.33.26.29.39.26-.2.15.21-.26.2.34.46.34-.26.15.2-.62.49-1.08-1.47Z"/>
          <path d="M17.48,17.52l.55-.56.18.18-.3.3.33.35.23-.23.18.19-.23.23.39.41.3-.3.17.18-.56.57-1.25-1.31Z"/>
        </g>
      </g>
    </g>
  </g>
</svg>